<?xml version="1.0" standalone="no"?>
<!DOCTYPE svg PUBLIC "-//W3C//DTD SVG 20010904//EN"
 "http://www.w3.org/TR/2001/REC-SVG-20010904/DTD/svg10.dtd">
<svg version="1.0" xmlns="http://www.w3.org/2000/svg"
 width="4500.000000pt" height="4500.000000pt" viewBox="0 0 4500.000000 4500.000000"
 preserveAspectRatio="xMidYMid meet">
<metadata>
Created by potrace 1.16, written by Peter Selinger 2001-2019
</metadata>
<g transform="translate(0.000000,4500.000000) scale(0.100000,-0.100000)"
fill="#000000" stroke="none">
<path d="M20481 42233 c-222 -632 -406 -1154 -409 -1162 -4 -11 14 -13 109 -7
63 4 125 9 139 12 23 4 33 28 130 314 79 237 108 310 120 310 9 0 192 13 406
29 214 17 409 31 432 33 l44 2 149 -289 c81 -160 152 -290 156 -290 98 4 263
18 263 23 0 10 -1125 2171 -1130 2172 -3 0 -187 -516 -409 -1147z m717 35
c141 -276 142 -278 114 -278 -15 0 -171 -11 -347 -25 -176 -14 -323 -25 -326
-25 -3 0 60 193 140 429 l146 428 66 -126 c36 -69 129 -251 207 -403z"/>
<path d="M23127 43255 c-4 -43 -7 -97 -7 -120 l0 -42 193 -12 c105 -6 220 -14
255 -17 l62 -6 0 -37 c0 -20 -27 -447 -61 -949 -33 -503 -58 -916 -55 -919 5
-5 238 -25 241 -20 1 1 30 430 64 952 35 523 65 952 67 954 2 2 117 -4 255
-13 138 -9 253 -15 256 -13 8 9 19 222 12 227 -5 3 -273 23 -596 43 -323 21
-609 41 -634 44 l-46 5 -6 -77z"/>
<path d="M27997 42493 c-8 -27 -148 -488 -312 -1026 -164 -538 -296 -979 -294
-981 3 -3 637 -197 771 -236 l28 -9 35 112 c19 61 33 112 32 114 -2 1 -124 39
-273 84 -148 45 -273 85 -278 90 -5 4 113 408 269 919 152 502 275 913 273
914 -7 5 -217 66 -227 66 -5 0 -17 -21 -24 -47z"/>
<path d="M15925 42300 c-84 -13 -136 -30 -220 -70 -211 -102 -323 -263 -333
-475 -11 -255 115 -447 343 -523 82 -28 142 -37 420 -67 257 -27 294 -34 367
-71 125 -63 195 -202 186 -365 -11 -187 -146 -327 -360 -376 -85 -19 -167 -10
-245 28 -57 27 -143 106 -186 169 -17 25 -31 47 -33 49 -5 6 -204 -134 -204
-143 0 -5 25 -42 55 -81 196 -256 474 -334 785 -219 206 77 379 262 425 455
21 91 19 229 -5 325 -53 210 -165 338 -356 407 -98 35 -152 44 -422 67 -289
25 -343 37 -435 102 -75 53 -112 233 -69 331 47 105 162 190 296 217 106 22
214 -9 303 -85 23 -19 44 -35 46 -35 3 0 38 42 77 93 l71 92 -40 36 c-50 45
-158 102 -231 123 -71 19 -172 27 -235 16z"/>
<path d="M30163 40690 c-505 -440 -919 -804 -921 -808 -1 -5 52 -34 119 -66
l121 -57 62 54 c33 30 140 125 236 212 96 86 181 159 187 162 11 4 796 -358
816 -376 4 -4 1 -145 -8 -312 -8 -167 -15 -312 -15 -322 0 -13 31 -33 113 -72
61 -30 118 -55 125 -55 7 0 12 13 12 30 0 24 68 1954 82 2333 2 42 0 77 -4 77
-4 0 -420 -360 -925 -800z m658 -183 c-10 -235 -20 -430 -22 -432 -7 -6 -629
289 -627 297 2 4 152 139 333 301 221 198 331 289 333 278 1 -9 -6 -209 -17
-444z"/>
<path d="M13036 41010 c-161 -26 -349 -102 -492 -201 -246 -170 -418 -441
-464 -731 -19 -119 -8 -330 24 -451 30 -116 106 -282 173 -376 288 -407 783
-569 1255 -411 353 118 605 380 688 715 43 172 27 399 -42 593 -36 103 -104
242 -118 242 -11 0 -770 -416 -781 -428 -8 -8 95 -195 110 -200 5 -2 128 62
274 142 145 80 269 146 275 146 6 0 20 -24 31 -54 49 -132 52 -291 8 -429
-131 -408 -628 -644 -1057 -501 -123 41 -215 99 -316 199 -188 186 -284 412
-284 667 0 331 192 618 512 767 212 100 421 105 651 15 51 -19 98 -36 106 -37
12 -2 40 68 86 214 5 14 -11 23 -82 49 -143 51 -237 70 -373 75 -69 2 -152 0
-184 -5z"/>
<path d="M33353 39955 c-197 -43 -374 -232 -405 -433 -9 -59 -8 -86 6 -158 22
-112 56 -185 201 -429 168 -283 180 -310 180 -415 0 -74 -4 -92 -28 -139 -75
-141 -226 -241 -367 -241 -94 0 -213 51 -302 130 -129 113 -167 277 -107 457
12 36 19 66 18 67 -8 7 -230 78 -233 75 -7 -8 -35 -107 -45 -157 -16 -78 -13
-235 5 -306 27 -103 80 -193 165 -277 224 -224 541 -290 794 -165 228 114 385
370 359 591 -16 141 -60 239 -234 516 -127 203 -159 271 -167 361 -5 48 -2 66
21 112 54 111 161 180 281 180 61 0 81 -5 148 -36 91 -44 171 -118 207 -193
18 -39 25 -72 28 -147 l4 -98 119 0 119 0 0 83 c0 166 -59 316 -165 422 -170
171 -395 245 -602 200z"/>
<path d="M10062 39174 c-50 -42 -92 -80 -92 -85 0 -4 236 -290 524 -636 289
-345 524 -628 523 -629 -2 -1 -1291 146 -2355 268 -18 2 -31 0 -29 -6 4 -12
1420 -1715 1427 -1715 10 -1 185 150 185 159 0 5 -233 289 -518 631 -286 341
-517 622 -515 624 2 3 536 -56 1187 -131 651 -74 1185 -133 1188 -130 4 4
-1423 1726 -1431 1726 -1 0 -43 -34 -94 -76z"/>
<path d="M7278 36563 c-42 -49 -74 -91 -72 -95 3 -4 363 -328 801 -719 l797
-713 73 80 c40 43 78 86 83 95 7 13 -145 153 -785 725 -436 390 -799 710 -807
712 -7 1 -47 -37 -90 -85z"/>
<path d="M36956 36579 c-215 -23 -408 -106 -592 -252 -180 -143 -310 -339
-381 -572 -25 -84 -27 -102 -27 -280 -1 -167 2 -200 22 -272 104 -381 376
-671 743 -794 76 -25 93 -28 107 -17 54 44 207 181 210 187 1 5 -24 11 -57 15
-149 17 -349 101 -468 196 -220 176 -349 493 -314 766 24 182 99 339 225 471
127 135 256 218 414 267 411 128 831 -60 1015 -454 59 -125 77 -200 84 -347 3
-68 8 -123 11 -123 2 0 53 42 113 93 l110 92 -5 65 c-11 157 -92 365 -195 501
-74 97 -226 236 -323 297 -208 129 -459 187 -692 161z"/>
<path d="M6223 34689 c-262 -34 -497 -165 -677 -379 -100 -118 -370 -522 -360
-537 7 -10 1546 -1056 1745 -1186 l26 -18 163 243 c172 256 252 405 292 543
20 71 23 101 22 260 -1 160 -3 190 -26 276 -48 179 -121 309 -248 443 -250
264 -606 398 -937 355z m312 -269 c170 -43 365 -168 480 -307 64 -78 137 -218
162 -313 24 -89 24 -291 0 -378 -31 -115 -78 -210 -178 -362 l-99 -151 -122
84 c-68 46 -368 250 -668 452 -300 202 -557 377 -572 387 l-28 19 82 122 c259
384 585 538 943 447z"/>
<path d="M38620 33466 c-710 -95 -1205 -166 -1205 -172 0 -20 129 -224 142
-224 7 0 153 21 324 46 171 25 313 44 315 42 9 -10 464 -762 464 -768 0 -4
-70 -104 -156 -221 -86 -118 -172 -235 -191 -261 l-34 -47 72 -116 c58 -94 74
-114 84 -103 17 19 1415 1978 1415 1983 0 7 87 18 -1230 -159z m720 -141 c0
-3 -118 -168 -261 -366 -182 -251 -264 -357 -270 -348 -4 8 -86 142 -182 299
-96 157 -173 286 -172 288 3 3 837 128 873 131 6 1 12 -1 12 -4z"/>
<path d="M13022 32584 c-24 -11 -50 -80 -63 -164 -15 -103 -7 -335 15 -404 23
-77 48 -96 120 -96 155 0 353 -51 473 -121 75 -44 216 -184 275 -274 25 -38
71 -115 102 -170 30 -55 881 -1942 1891 -4194 1010 -2252 1854 -4130 1877
-4173 192 -359 425 -407 612 -125 38 58 283 582 842 1797 433 943 801 1737
818 1763 53 82 88 74 144 -31 17 -31 355 -779 752 -1662 397 -883 741 -1644
765 -1692 113 -224 221 -338 337 -354 107 -15 217 53 304 186 23 36 568 1218
1211 2627 642 1410 1171 2563 1176 2563 4 0 7 -1283 7 -2851 l0 -2851 -47 6
c-126 17 -525 25 -754 16 -1035 -41 -1881 -289 -2650 -776 -479 -303 -961
-755 -1325 -1241 -619 -827 -944 -1785 -995 -2935 -38 -853 113 -1619 455
-2314 227 -462 503 -842 901 -1239 599 -600 1272 -1005 2056 -1239 528 -157
1044 -226 1694 -226 929 0 1726 99 2458 304 107 30 293 73 414 97 170 33 222
46 236 62 31 35 127 212 196 364 250 545 521 1399 521 1641 0 40 -5 50 -40 83
-125 119 -448 193 -581 132 -40 -18 -49 -28 -64 -69 -136 -369 -260 -607 -449
-862 -100 -134 -349 -385 -481 -483 -544 -406 -1251 -609 -2121 -609 -295 0
-476 23 -714 91 -325 93 -660 272 -965 515 -147 118 -457 429 -581 584 -587
735 -897 1609 -986 2780 -18 246 -15 853 5 1080 63 678 204 1225 452 1746 121
255 293 535 471 764 119 155 419 453 564 562 424 318 877 493 1425 549 139 14
587 12 765 -4 l135 -12 -1 -235 c0 -140 -5 -263 -12 -305 -48 -268 -179 -448
-412 -565 -155 -78 -319 -115 -584 -133 l-171 -12 -25 -50 c-24 -49 -25 -56
-25 -265 0 -232 9 -291 50 -330 22 -20 25 -20 266 -10 914 38 1661 51 2450 43
l647 -6 16 -125 c10 -69 22 -134 27 -145 6 -10 32 -29 57 -40 43 -20 64 -22
227 -22 208 0 272 13 333 70 l37 33 3 117 4 116 241 -6 c133 -2 481 -7 772
-10 292 -3 1034 -12 1650 -21 1671 -23 1716 -18 1797 206 l23 65 3 1286 3
1287 -26 30 c-34 41 -99 61 -225 72 -186 15 -376 -10 -439 -59 -27 -21 -39
-78 -40 -198 -3 -266 -92 -614 -230 -898 -118 -241 -277 -461 -476 -660 -140
-141 -259 -229 -410 -305 -145 -73 -264 -108 -410 -121 -187 -18 -2259 -96
-2266 -86 -4 5 -9 54 -13 110 -22 321 -83 804 -137 1072 -28 142 -78 324 -97
353 -7 10 -57 16 -177 23 -92 5 -184 11 -204 15 -37 6 -428 81 -469 90 l-22 4
2 3028 3 3027 23 80 c12 44 37 112 56 150 127 267 422 413 878 433 180 9 186
11 215 96 15 42 18 84 18 246 0 209 -8 259 -49 307 -19 22 -31 27 -62 26 -22
-1 -124 -7 -229 -13 -220 -12 -1878 -31 -1923 -21 l-31 6 108 235 c59 129 251
549 426 934 175 384 335 725 354 757 118 194 296 331 545 418 163 57 438 101
638 101 42 0 84 3 93 6 24 10 53 73 66 148 17 98 7 376 -16 439 -28 78 -40 81
-213 68 -448 -33 -1728 -39 -2227 -10 -110 7 -231 12 -270 13 l-70 1 -23 -46
c-65 -131 -45 -570 29 -609 10 -6 39 -10 66 -10 78 0 174 -19 233 -46 177 -81
226 -249 150 -520 -31 -111 -49 -152 -453 -1042 l-382 -843 -210 6 c-115 3
-313 11 -440 17 -285 14 -276 14 -297 -12 -36 -44 -43 -98 -43 -310 1 -178 3
-212 20 -260 26 -72 44 -80 175 -80 149 0 425 -35 466 -59 6 -4 -269 -621
-716 -1606 -773 -1705 -752 -1663 -829 -1678 -41 -9 -89 11 -122 50 -14 17
-324 687 -689 1489 l-664 1459 -4 90 c-3 63 1 109 13 155 25 98 1184 2605
1250 2706 198 298 557 456 1096 480 166 8 178 13 205 98 22 68 31 330 15 422
-15 85 -44 142 -75 150 -14 3 -87 1 -163 -5 -415 -33 -1652 -39 -2103 -10 -96
6 -211 11 -255 12 l-80 2 -23 -47 c-50 -101 -52 -452 -3 -562 22 -50 25 -52
138 -60 137 -11 237 -67 276 -156 40 -91 17 -251 -71 -483 -42 -108 -539
-1205 -599 -1320 -67 -128 -143 -162 -207 -93 -23 23 -122 228 -326 672 -318
695 -362 801 -392 944 -33 157 -14 252 64 327 68 65 220 112 366 113 35 0 72
5 84 11 32 17 57 89 69 200 20 189 -6 392 -57 439 -23 22 -24 22 -186 11 -571
-40 -2066 -40 -2636 0 -190 13 -191 13 -219 -80 -22 -71 -25 -385 -5 -473 19
-83 42 -108 100 -108 138 -1 284 -60 378 -154 68 -69 109 -141 237 -416 160
-346 1604 -3565 1617 -3604 16 -50 17 -151 2 -196 -7 -19 -207 -471 -446
-1005 -274 -611 -446 -984 -465 -1007 -58 -69 -144 -69 -202 0 -36 43 -2538
5581 -2594 5744 -145 416 -33 611 365 635 117 7 128 15 156 108 15 48 19 94
19 235 0 194 -14 267 -59 309 l-25 23 -163 -11 c-329 -22 -1078 -34 -1808 -27
-643 5 -824 10 -1175 30 -49 3 -96 3 -103 0z"/>
<path d="M4580 31830 c-319 -68 -574 -277 -738 -605 -89 -179 -224 -487 -216
-494 20 -17 1938 -881 1948 -878 6 3 33 53 60 113 154 343 180 404 207 487 84
258 73 499 -34 755 -91 216 -271 403 -492 514 -95 49 -227 94 -325 112 -111
22 -301 20 -410 -4z m404 -254 c510 -140 776 -584 629 -1050 -20 -64 -136
-342 -147 -353 -3 -3 -1514 681 -1522 689 -9 10 108 258 158 334 128 198 307
334 505 384 94 24 282 22 377 -4z"/>
<path d="M40601 31119 c-112 -19 -258 -99 -313 -171 -59 -77 -102 -189 -117
-305 -6 -43 -15 -180 -21 -305 -6 -125 -15 -252 -21 -283 -24 -131 -85 -211
-201 -266 -68 -32 -80 -34 -178 -34 -92 0 -112 3 -160 26 -31 14 -73 41 -95
60 -77 68 -144 200 -160 320 -8 56 14 152 52 220 25 47 112 137 162 170 l24
15 -74 97 c-41 53 -79 96 -86 97 -22 0 -182 -161 -222 -225 -67 -105 -94 -201
-94 -325 0 -120 17 -196 69 -308 71 -154 178 -271 308 -336 97 -49 172 -66
286 -66 310 1 545 177 605 455 9 43 19 173 25 335 14 361 31 442 111 514 40
37 145 76 203 76 177 0 336 -189 336 -399 0 -71 -32 -156 -86 -227 -15 -19
-25 -36 -23 -38 2 -2 46 -31 98 -66 l95 -63 28 34 c40 47 95 162 114 239 35
140 1 327 -87 477 -50 85 -162 194 -240 232 -108 53 -219 69 -338 50z"/>
<path d="M2996 28978 c-61 -215 -276 -1001 -276 -1013 0 -9 20 -20 53 -29 328
-94 2011 -555 2014 -553 9 10 294 1060 290 1071 -6 15 -207 70 -217 59 -4 -4
-58 -192 -120 -418 -62 -225 -113 -411 -114 -411 -2 -3 -777 214 -782 219 -3
3 45 186 106 407 61 221 110 404 108 406 -5 4 -221 64 -224 61 -2 -2 -224
-804 -224 -810 0 -5 -589 158 -595 165 -3 3 45 187 106 409 62 222 112 410
113 418 1 8 -34 23 -99 42 -55 15 -105 28 -112 29 -6 0 -18 -24 -27 -52z"/>
<path d="M39843 28139 c3 -13 18 -74 32 -135 l26 -111 315 -54 c174 -30 320
-56 325 -59 10 -7 211 -860 205 -875 -2 -5 -119 -93 -260 -194 -146 -106 -256
-192 -256 -200 0 -33 54 -251 62 -251 17 0 1968 1444 1961 1450 -5 4 -537 105
-1183 224 -646 120 -1188 220 -1204 223 -27 6 -28 4 -23 -18z m1419 -480 c325
-56 425 -77 415 -85 -21 -21 -717 -523 -717 -519 0 7 -150 646 -157 669 -4 15
-1 18 13 14 11 -2 211 -38 446 -79z"/>
<path d="M2305 26228 c-4 -29 -7 -91 -8 -137 l-2 -83 757 -372 c417 -204 758
-373 758 -376 0 -3 -392 -113 -870 -245 -478 -132 -870 -242 -870 -245 0 -3
365 -185 810 -404 446 -220 813 -402 815 -405 2 -4 -360 -100 -803 -215 -444
-115 -809 -211 -812 -213 -5 -4 -29 -265 -25 -271 3 -3 2283 615 2310 626 19
9 -307 174 -1338 679 -153 75 -274 140 -270 143 5 4 393 112 863 240 470 129
859 237 864 241 8 7 -2142 1089 -2163 1089 -5 0 -12 -24 -16 -52z"/>
<path d="M40879 25095 c-204 -88 -332 -220 -395 -405 -16 -45 -19 -84 -19
-215 1 -144 3 -167 27 -237 74 -220 217 -365 428 -430 61 -18 98 -23 195 -22
193 0 308 46 422 168 82 89 138 201 228 461 73 209 106 282 155 344 93 115
286 124 405 19 59 -52 90 -107 111 -193 32 -139 -5 -274 -100 -362 -28 -27
-62 -55 -76 -64 l-24 -16 69 -89 c38 -49 70 -91 71 -92 9 -13 59 22 129 92
131 131 175 238 175 427 0 197 -55 344 -175 465 -115 116 -235 160 -410 152
-159 -8 -264 -59 -355 -171 -70 -87 -99 -146 -196 -403 -102 -271 -133 -333
-196 -396 -64 -63 -133 -88 -241 -88 -234 0 -391 150 -413 395 -11 124 31 242
117 326 48 47 175 119 210 119 10 0 20 4 23 9 4 5 -11 58 -32 118 -44 124 -47
126 -133 88z"/>
<path d="M41916 20374 c-184 -45 -337 -201 -382 -390 -27 -115 -7 -261 49
-371 30 -58 107 -141 167 -181 93 -62 176 -87 295 -87 78 0 115 5 168 24 369
126 477 589 202 867 -129 130 -316 182 -499 138z"/>
<path d="M2881 20014 c-290 -78 -456 -390 -360 -677 121 -363 591 -474 862
-204 165 164 203 402 100 617 -35 73 -150 187 -225 223 -118 57 -261 72 -377
41z"/>
<path d="M41354 17136 c-131 -41 -261 -153 -315 -271 -131 -289 -39 -580 221
-699 74 -34 168 -48 233 -35 109 20 150 50 337 239 96 98 190 185 209 195 24
12 50 16 86 13 90 -8 149 -72 149 -163 0 -131 -87 -221 -231 -240 -48 -6 -52
-9 -48 -28 2 -12 12 -74 20 -137 25 -182 20 -170 69 -170 61 0 150 25 232 65
177 87 294 301 294 540 0 54 -6 113 -16 146 -68 232 -277 387 -508 377 -71 -3
-93 -8 -162 -42 -72 -36 -96 -56 -274 -238 -187 -189 -197 -198 -234 -198 -30
0 -45 7 -72 34 -29 29 -34 41 -34 81 0 88 79 189 164 211 14 3 28 10 31 14 4
7 -11 63 -66 253 -11 37 -25 67 -32 66 -7 0 -30 -6 -53 -13z"/>
<path d="M3640 16637 c-641 -214 -1167 -391 -1169 -393 -1 -1 76 -241 173
-532 l177 -530 167 55 c92 31 171 59 175 63 4 3 -44 159 -108 345 -63 186
-115 340 -115 341 0 1 452 153 1004 339 l1004 337 -61 184 c-34 101 -66 183
-72 183 -5 -1 -534 -177 -1175 -392z"/>
<path d="M40497 15173 c-21 -35 -147 -326 -143 -331 3 -2 37 -19 76 -37 l71
-32 -58 -21 c-175 -64 -304 -215 -365 -428 -29 -102 -31 -285 -4 -384 80 -296
340 -526 679 -602 131 -29 327 -22 442 15 214 70 383 237 463 459 23 64 27 88
27 198 0 96 -4 137 -19 178 -10 29 -16 55 -15 57 2 2 32 -10 66 -25 35 -16 65
-26 67 -22 12 21 146 323 146 330 0 8 -1405 652 -1422 652 -4 0 -9 -3 -11 -7z
m539 -622 c296 -115 421 -368 305 -616 -70 -150 -208 -236 -380 -237 -90 -1
-159 16 -256 62 -222 107 -337 321 -279 521 40 136 137 242 267 290 42 16 71
19 157 16 89 -3 118 -9 186 -36z"/>
<path d="M4235 14554 c-320 -52 -592 -246 -717 -512 -54 -115 -71 -201 -65
-337 12 -277 163 -506 395 -601 l57 -23 -68 -31 c-37 -18 -67 -34 -67 -36 0
-4 160 -327 164 -331 3 -3 1405 673 1413 681 4 4 -157 336 -163 336 -3 0 -36
-16 -74 -35 -39 -19 -70 -34 -70 -33 0 2 9 30 19 63 105 336 -131 731 -499
835 -74 21 -259 34 -325 24z m216 -388 c132 -28 226 -101 286 -224 37 -74 38
-79 38 -186 0 -102 -2 -116 -29 -171 -95 -193 -383 -344 -586 -305 -245 46
-406 306 -330 529 43 127 132 228 260 295 129 68 242 87 361 62z"/>
<path d="M39396 12688 c-158 -30 -290 -137 -369 -298 -79 -160 -84 -295 -18
-437 41 -88 135 -184 220 -226 60 -29 73 -32 161 -32 123 1 166 18 357 142
192 124 240 147 303 141 61 -6 102 -36 130 -94 37 -75 9 -169 -71 -237 -52
-45 -115 -61 -192 -49 -31 5 -57 9 -58 8 0 -1 -8 -75 -18 -166 -13 -112 -16
-167 -9 -171 18 -11 153 -21 194 -14 156 25 248 69 329 157 118 127 185 285
185 435 0 156 -45 268 -150 374 -122 123 -264 170 -413 135 -85 -20 -143 -49
-343 -174 -188 -116 -216 -132 -243 -132 -29 0 -78 46 -91 85 -10 30 -8 42 13
89 36 79 120 134 205 136 l32 0 0 58 c0 31 -3 108 -7 170 l-6 112 -46 -1 c-25
-1 -68 -5 -95 -11z"/>
<path d="M5698 12175 c-82 -22 -141 -57 -205 -120 -52 -52 -64 -72 -82 -129
-27 -87 -27 -195 -1 -381 25 -172 25 -228 1 -280 -69 -153 -256 -130 -327 40
-30 73 -16 150 46 241 l21 32 -141 87 c-78 48 -146 85 -153 82 -18 -7 -75
-106 -97 -170 -45 -127 -45 -251 1 -372 49 -132 188 -293 301 -347 175 -86
378 -72 541 36 100 67 147 139 174 273 15 75 15 87 -12 339 -31 296 -30 304
37 337 46 23 90 12 130 -31 59 -62 76 -138 53 -225 -8 -32 -15 -60 -15 -61 0
-2 44 -23 98 -47 53 -23 121 -53 150 -66 l53 -23 25 54 c61 133 55 299 -15
441 -98 197 -261 306 -453 304 -46 0 -104 -7 -130 -14z"/>
<path d="M38055 10880 c-61 -77 -111 -144 -113 -149 -2 -5 24 -31 57 -58 l61
-48 -78 -13 c-351 -57 -596 -453 -517 -836 66 -321 351 -598 703 -683 90 -21
267 -21 352 0 192 50 373 192 463 366 49 93 58 130 66 260 l6 113 54 -43 54
-43 31 36 c17 19 70 86 119 147 l87 111 -292 233 c-633 503 -939 747 -941 747
-1 0 -52 -63 -112 -140z m336 -529 c189 -72 346 -244 379 -418 33 -170 -70
-363 -239 -446 -60 -29 -74 -32 -161 -32 -112 0 -176 17 -269 72 -126 75 -226
201 -265 332 -59 201 64 425 273 499 82 28 195 26 282 -7z"/>
<path d="M8425 9562 c-231 -229 -626 -622 -878 -872 l-457 -454 257 -259 c289
-289 373 -359 518 -428 210 -99 403 -105 581 -18 174 86 343 293 384 468 28
119 10 279 -45 399 l-24 53 37 -8 c63 -12 158 -6 229 15 92 28 174 83 259 174
116 125 172 251 181 408 9 170 -37 307 -158 471 -64 86 -434 469 -453 469 -6
0 -200 -188 -431 -418z m616 -299 c98 -138 75 -293 -64 -418 -84 -77 -154
-109 -238 -109 -93 0 -170 39 -280 144 l-84 80 250 245 250 245 68 -72 c37
-40 81 -92 98 -115z m-585 -889 c36 -71 39 -85 39 -159 0 -68 -5 -89 -29 -138
-16 -31 -53 -80 -83 -108 -114 -108 -245 -134 -373 -73 -79 38 -187 123 -300
238 l-85 87 260 254 260 254 136 -138 c115 -117 143 -151 175 -217z"/>
<path d="M35830 9529 c-105 -28 -282 -117 -381 -191 -113 -85 -270 -244 -347
-353 -100 -142 -161 -279 -198 -450 -24 -110 -24 -359 0 -470 58 -270 185
-502 387 -705 276 -279 633 -409 1022 -372 164 16 288 50 432 122 308 152 553
425 669 749 l27 74 -24 26 c-13 14 -83 90 -157 169 l-134 143 -18 -108 c-22
-129 -48 -212 -98 -313 -164 -329 -532 -533 -882 -490 -282 34 -537 199 -705
456 -196 301 -210 622 -42 921 53 94 233 280 321 331 142 84 339 142 477 142
34 0 61 3 61 6 0 13 -305 329 -320 331 -8 1 -49 -7 -90 -18z"/>
<path d="M10020 7269 c-153 -40 -273 -112 -391 -236 -405 -424 -279 -1080 256
-1338 136 -66 196 -79 360 -80 165 0 227 14 360 79 167 83 305 224 390 399 53
111 75 192 82 308 22 332 -176 652 -500 809 -166 80 -388 103 -557 59z m363
-350 c220 -73 365 -293 328 -496 -34 -189 -190 -376 -369 -443 -47 -18 -73
-21 -148 -18 -82 3 -100 8 -169 42 -101 50 -190 137 -235 230 -46 93 -53 208
-20 306 58 172 205 330 354 382 71 24 181 23 259 -3z"/>
<path d="M13554 5825 c-176 -311 -321 -565 -324 -565 -3 0 -14 30 -24 67 -25
86 -101 200 -174 260 -74 60 -214 128 -308 149 -114 25 -293 16 -399 -20 -214
-73 -402 -252 -506 -482 -80 -177 -104 -409 -60 -577 72 -275 319 -497 585
-525 72 -8 179 -2 239 13 l28 7 -37 -62 c-20 -34 -32 -66 -28 -70 16 -15 316
-181 320 -177 9 8 1334 2360 1332 2362 -3 2 -174 100 -269 153 l-56 32 -319
-565z m-781 -473 c96 -48 160 -110 204 -198 31 -64 37 -88 41 -159 4 -71 0
-98 -21 -167 -68 -215 -219 -367 -399 -401 -166 -31 -369 74 -442 227 -14 30
-31 86 -38 124 -25 145 39 325 160 453 111 119 206 161 343 156 73 -3 97 -8
152 -35z"/>
<path d="M32603 5935 c-128 -28 -283 -135 -353 -245 -63 -99 -87 -248 -59
-369 26 -114 111 -231 199 -276 96 -48 188 -55 426 -29 218 23 291 9 341 -67
58 -87 22 -191 -85 -252 -88 -49 -178 -38 -271 34 -13 11 -28 19 -32 19 -5 0
-50 -61 -100 -136 l-91 -136 22 -23 c12 -13 52 -39 89 -58 204 -107 387 -96
587 35 146 94 228 207 259 353 18 87 18 142 1 226 -29 133 -120 265 -218 315
-114 58 -186 63 -513 39 -234 -18 -254 -14 -281 52 -50 117 136 229 280 169
21 -9 40 -16 43 -16 6 0 143 286 143 298 0 14 -94 52 -169 68 -81 17 -137 17
-218 -1z"/>
<path d="M30810 4950 c-176 -78 -172 -73 -127 -171 l25 -56 -66 26 c-58 22
-83 25 -187 26 -92 0 -133 -4 -175 -19 -228 -77 -414 -256 -484 -466 -145
-434 119 -970 550 -1116 162 -55 372 -41 536 34 136 63 257 183 310 309 l22
53 27 -62 c15 -35 32 -64 38 -66 18 -6 340 140 335 152 -55 142 -626 1422
-636 1423 -7 1 -83 -29 -168 -67z m-127 -497 c171 -54 312 -245 347 -471 13
-84 -5 -187 -46 -262 -38 -69 -121 -145 -201 -183 -62 -29 -76 -32 -168 -32
-94 0 -105 2 -170 34 -177 87 -305 299 -305 506 0 176 83 313 233 384 103 49
205 57 310 24z"/>
<path d="M27490 4686 c-153 -46 -175 -55 -172 -72 7 -47 691 -2359 698 -2361
10 -3 1051 301 1060 309 7 8 -91 341 -102 345 -5 2 -162 -42 -349 -96 -187
-55 -341 -99 -342 -97 -2 2 -137 458 -300 1014 -164 557 -302 1012 -308 1011
-5 0 -89 -24 -185 -53z"/>
<path d="M14958 4530 c-293 -53 -521 -267 -627 -585 -135 -407 11 -809 354
-975 114 -56 191 -74 310 -73 80 0 115 5 175 26 41 14 76 24 77 23 2 -1 -8
-31 -22 -66 -14 -35 -24 -65 -22 -66 12 -12 342 -133 348 -127 8 10 569 1437
569 1450 0 6 -143 66 -330 138 -12 4 -22 -13 -44 -71 l-30 -76 -39 78 c-74
146 -211 254 -387 304 -84 24 -257 34 -332 20z m344 -387 c159 -75 248 -214
248 -388 0 -90 -20 -168 -70 -273 -94 -196 -279 -305 -463 -272 -257 47 -404
283 -341 550 43 184 174 344 327 401 82 31 212 23 299 -18z"/>
<path d="M17461 3724 c-128 -34 -235 -128 -299 -261 -35 -74 -37 -83 -37 -178
0 -88 3 -107 27 -158 34 -73 101 -143 264 -278 142 -117 183 -166 191 -227 16
-116 -93 -209 -212 -182 -60 13 -93 31 -126 67 -37 39 -58 84 -66 138 -3 25
-10 48 -15 51 -10 6 -301 -46 -320 -57 -18 -12 15 -151 57 -236 68 -138 170
-220 340 -273 97 -30 250 -38 332 -17 247 64 417 288 400 528 -10 150 -61 222
-320 447 -101 89 -187 168 -191 177 -15 40 -6 77 28 111 29 29 41 34 83 34 26
0 66 -9 88 -19 49 -22 108 -86 126 -135 11 -30 17 -35 34 -30 11 4 81 28 155
55 157 55 154 51 99 166 -43 91 -144 192 -231 233 -122 57 -291 75 -407 44z"/>
<path d="M24123 3195 c-82 -18 -190 -75 -252 -135 -45 -44 -50 -46 -55 -26 -3
11 -6 40 -6 63 l0 43 -42 -5 c-24 -3 -106 -10 -183 -15 -76 -6 -142 -13 -144
-16 -5 -5 106 -1555 112 -1560 5 -5 359 24 365 30 3 3 -10 206 -28 451 -28
390 -31 457 -21 536 15 116 42 186 88 231 46 45 96 64 194 73 177 17 255 -52
294 -256 9 -46 31 -288 49 -537 18 -249 35 -454 37 -456 5 -3 362 24 367 28 7
8 -80 1086 -93 1146 -39 182 -120 295 -258 363 -113 55 -284 72 -424 42z"/>
<path d="M21345 3130 c-145 -38 -241 -96 -347 -208 -166 -176 -246 -407 -235
-677 9 -232 77 -401 217 -544 116 -119 251 -181 436 -202 266 -30 503 38 668
192 66 62 156 174 145 182 -2 2 -71 45 -154 97 l-149 93 -15 -24 c-33 -53
-143 -151 -199 -177 -50 -24 -69 -27 -162 -27 -58 0 -124 6 -147 13 -132 40
-239 186 -260 355 l-6 47 39 0 c21 0 266 -11 544 -25 278 -14 513 -25 523 -25
15 0 17 12 17 114 0 149 -14 250 -51 361 -79 237 -264 408 -496 459 -100 22
-277 20 -368 -4z m338 -328 c93 -41 176 -146 200 -252 l6 -25 -350 16 c-193
10 -352 19 -354 21 -10 9 47 111 85 152 82 89 154 118 280 112 59 -2 101 -10
133 -24z"/>
</g>
</svg>
