<?xml version="1.0" encoding="UTF-8"?><svg id="Layer_1" xmlns="http://www.w3.org/2000/svg" viewBox="0 0 1080 221.79"><defs><style>.cls-1{fill:#010101;}.cls-2{fill:#231f20;}</style></defs><g><path class="cls-1" d="M48.27,56.37v1.67c-1.89,.06-3.32,.26-4.3,.63-.97,.36-1.63,1.03-1.96,2-.33,.97-.5,2.49-.5,4.55v41.71c0,1.89,.15,3.31,.46,4.25,.31,.95,.92,1.57,1.84,1.88,.92,.31,2.24,.46,3.96,.46h5.42c3.23,0,5.78-.6,7.68-1.79,1.89-1.2,3.34-3.02,4.34-5.46,1-2.45,1.72-5.56,2.17-9.34h1.92c-.17,1.78-.25,4.12-.25,7.01,0,1.11,.04,2.74,.12,4.88,.08,2.14,.24,4.35,.46,6.63-2.84-.11-6.04-.18-9.59-.21-3.56-.03-6.73-.04-9.51-.04h-6.88c-2.87,0-5.92,.01-9.18,.04-3.25,.03-6.3,.1-9.14,.21v-1.67c1.89-.11,3.31-.33,4.25-.67,.94-.33,1.57-1,1.88-2,.31-1,.46-2.5,.46-4.5v-41.38c0-2.06-.15-3.57-.46-4.55-.31-.97-.95-1.64-1.92-2-.97-.36-2.38-.57-4.21-.63v-1.67c1.28,.06,2.93,.11,4.96,.17,2.03,.06,4.21,.08,6.55,.08,2.11,0,4.21-.03,6.3-.08,2.09-.06,3.8-.11,5.13-.17Z"/><path class="cls-1" d="M100,56.04l20.36,52.39c.78,2.06,1.68,3.45,2.71,4.17,1.03,.72,1.99,1.11,2.88,1.17v1.67c-1.33-.11-2.91-.18-4.71-.21-1.81-.03-3.63-.04-5.46-.04-2.34,0-4.51,.01-6.51,.04-2,.03-3.62,.1-4.84,.21v-1.67c2.84-.11,4.63-.6,5.38-1.46,.75-.86,.57-2.71-.54-5.55l-15.02-40.55,1.33-1.5-13.85,36.21c-1.33,3.34-1.98,5.92-1.92,7.76,.05,1.84,.71,3.13,1.96,3.88s3.05,1.16,5.38,1.21v1.67c-1.67-.11-3.35-.18-5.05-.21-1.7-.03-3.3-.04-4.8-.04-1.33,0-2.52,.01-3.55,.04-1.03,.03-1.96,.1-2.79,.21v-1.67c1.17-.28,2.34-.97,3.5-2.09,1.17-1.11,2.28-3,3.34-5.67l19.36-49.97h2.84Zm8.76,35.37v1.67h-24.86l.83-1.67h24.03Z"/><path class="cls-1" d="M147.47,55.37c2.95,0,5.2,.33,6.76,1,1.56,.67,2.92,1.39,4.09,2.17,.67,.39,1.21,.68,1.63,.88,.42,.2,.82,.29,1.21,.29,.89,0,1.5-1.22,1.84-3.67h1.92c-.06,1-.12,2.18-.21,3.55-.08,1.36-.14,3.16-.17,5.38-.03,2.23-.04,5.15-.04,8.76h-1.92c-.17-2.72-.77-5.37-1.79-7.93-1.03-2.56-2.53-4.64-4.5-6.26-1.98-1.61-4.49-2.42-7.55-2.42-2.84,0-5.19,.85-7.05,2.54-1.86,1.7-2.79,3.94-2.79,6.72,0,2.45,.61,4.49,1.84,6.13,1.22,1.64,2.91,3.17,5.05,4.59,2.14,1.42,4.57,2.99,7.3,4.71,2.78,1.78,5.28,3.55,7.51,5.3,2.22,1.75,3.98,3.69,5.26,5.8,1.28,2.11,1.92,4.67,1.92,7.68,0,3.62-.85,6.61-2.54,8.97-1.7,2.36-3.96,4.13-6.8,5.3-2.84,1.17-5.95,1.75-9.34,1.75-3.12,0-5.59-.33-7.43-1s-3.39-1.36-4.67-2.09c-1.22-.78-2.17-1.17-2.84-1.17-.89,0-1.5,1.22-1.84,3.67h-1.92c.11-1.22,.18-2.66,.21-4.3,.03-1.64,.05-3.8,.08-6.47,.03-2.67,.04-6.03,.04-10.1h1.92c.22,3.45,.85,6.67,1.88,9.68,1.03,3,2.61,5.41,4.76,7.22,2.14,1.81,4.99,2.71,8.55,2.71,2.78,0,5.26-.85,7.43-2.54,2.17-1.7,3.25-4.35,3.25-7.97,0-3.39-1.18-6.22-3.55-8.47-2.36-2.25-5.46-4.55-9.3-6.88-2.62-1.67-5.06-3.34-7.34-5.01-2.28-1.67-4.1-3.61-5.46-5.84-1.36-2.22-2.04-4.87-2.04-7.93,0-3.39,.79-6.17,2.38-8.34,1.58-2.17,3.64-3.78,6.17-4.84,2.53-1.06,5.24-1.58,8.13-1.58Z"/><path class="cls-1" d="M195.27,56.37c1.28,.06,2.93,.11,4.96,.17,2.03,.06,4.05,.08,6.05,.08,2.67,0,5.21-.03,7.63-.08,2.42-.06,4.13-.08,5.13-.08,6.23,0,10.89,1.22,13.97,3.67,3.09,2.45,4.63,5.59,4.63,9.43,0,1.95-.46,3.88-1.38,5.8-.92,1.92-2.41,3.64-4.46,5.17-2.06,1.53-4.78,2.74-8.18,3.63v.17c4.67,.5,8.34,1.5,11.01,3,2.67,1.5,4.56,3.3,5.67,5.38,1.11,2.09,1.67,4.27,1.67,6.55,0,4.89-1.85,8.82-5.55,11.76-3.7,2.95-8.86,4.42-15.48,4.42-1.22,0-3.07-.04-5.55-.12-2.48-.08-5.46-.13-8.97-.13-2.11,0-4.19,.01-6.22,.04-2.03,.03-3.69,.1-4.96,.21v-1.67c1.89-.11,3.31-.33,4.25-.67,.94-.33,1.57-1,1.88-2,.31-1,.46-2.5,.46-4.5v-41.38c0-2.06-.15-3.57-.46-4.55-.31-.97-.95-1.64-1.92-2-.97-.36-2.38-.57-4.21-.63v-1.67Zm22.03,1.67c-2.39,0-3.96,.47-4.71,1.42-.75,.95-1.13,2.87-1.13,5.76v41.38c0,2.89,.39,4.77,1.17,5.63,.78,.86,2.42,1.29,4.92,1.29,5.01,0,8.63-1.26,10.89-3.8,2.25-2.53,3.38-6.13,3.38-10.8,0-4.28-1.13-7.59-3.38-9.93-2.25-2.34-5.97-3.5-11.14-3.5h-8.09v-1.42h7.17c3.06,0,5.42-.63,7.09-1.88,1.67-1.25,2.81-2.92,3.42-5.01,.61-2.09,.92-4.32,.92-6.72,0-4.12-.81-7.22-2.42-9.3-1.61-2.09-4.31-3.13-8.09-3.13Z"/><path class="cls-1" d="M277.03,55.2c5.45,0,10.25,1.2,14.39,3.59,4.14,2.39,7.35,5.83,9.64,10.3,2.28,4.48,3.42,9.92,3.42,16.31s-1.17,11.68-3.5,16.35c-2.34,4.67-5.59,8.32-9.76,10.93-4.17,2.61-8.93,3.92-14.27,3.92s-10.32-1.2-14.43-3.59c-4.12-2.39-7.31-5.84-9.59-10.35-2.28-4.51-3.42-9.93-3.42-16.27s1.18-11.68,3.55-16.35c2.36-4.67,5.6-8.31,9.72-10.93,4.12-2.61,8.87-3.92,14.27-3.92Zm-.33,1.5c-3.45,0-6.45,1.25-9.01,3.75-2.56,2.5-4.53,5.95-5.92,10.35-1.39,4.39-2.09,9.48-2.09,15.27s.78,11.03,2.34,15.39c1.56,4.37,3.67,7.73,6.34,10.1,2.67,2.36,5.64,3.55,8.93,3.55,3.45,0,6.44-1.25,8.97-3.75,2.53-2.5,4.51-5.97,5.92-10.39,1.42-4.42,2.13-9.5,2.13-15.23s-.79-11.1-2.38-15.43-3.7-7.69-6.34-10.05c-2.64-2.36-5.6-3.55-8.88-3.55Z"/><path class="cls-1" d="M334.93,56.37c10.29,0,17.94,2.49,22.94,7.47,5.01,4.98,7.51,12.11,7.51,21.4,0,6.06-1.22,11.36-3.67,15.89-2.45,4.53-5.99,8.05-10.64,10.55-4.65,2.5-10.28,3.75-16.89,3.75-1.22,0-3.05-.04-5.46-.12s-4.55-.13-6.38-.13c-2.11,0-4.19,.01-6.22,.04-2.03,.03-3.69,.1-4.96,.21v-1.67c1.89-.11,3.31-.33,4.25-.67,.94-.33,1.57-1,1.88-2,.31-1,.46-2.5,.46-4.5v-41.38c0-2.06-.15-3.57-.46-4.55-.31-.97-.95-1.64-1.92-2-.97-.36-2.38-.57-4.21-.63v-1.67c1.28,.06,2.93,.12,4.96,.21,2.03,.08,4.05,.1,6.05,.04,2-.05,4.24-.11,6.72-.17,2.47-.05,4.49-.08,6.05-.08Zm-1.42,1.5c-2.56,0-4.23,.47-5.01,1.42-.78,.95-1.17,2.87-1.17,5.76v41.71c0,2.89,.4,4.81,1.21,5.76,.81,.95,2.49,1.42,5.05,1.42,5.62,0,9.98-1.1,13.1-3.3,3.11-2.2,5.31-5.41,6.59-9.64,1.28-4.23,1.92-9.37,1.92-15.43,0-9.34-1.61-16.3-4.84-20.86-3.23-4.56-8.84-6.84-16.85-6.84Z"/><path class="cls-1" d="M395.92,56.04l20.36,52.39c.78,2.06,1.68,3.45,2.71,4.17,1.03,.72,1.99,1.11,2.88,1.17v1.67c-1.33-.11-2.91-.18-4.71-.21-1.81-.03-3.63-.04-5.46-.04-2.34,0-4.51,.01-6.51,.04-2,.03-3.62,.1-4.84,.21v-1.67c2.84-.11,4.63-.6,5.38-1.46,.75-.86,.57-2.71-.54-5.55l-15.02-40.55,1.33-1.5-13.85,36.21c-1.33,3.34-1.98,5.92-1.92,7.76,.05,1.84,.71,3.13,1.96,3.88s3.05,1.16,5.38,1.21v1.67c-1.67-.11-3.35-.18-5.05-.21-1.7-.03-3.3-.04-4.8-.04-1.33,0-2.52,.01-3.55,.04-1.03,.03-1.96,.1-2.79,.21v-1.67c1.17-.28,2.34-.97,3.5-2.09,1.17-1.11,2.28-3,3.34-5.67l19.36-49.97h2.84Zm8.76,35.37v1.67h-24.86l.83-1.67h24.03Z"/><path class="cls-1" d="M443.39,55.37c2.95,0,5.2,.33,6.76,1,1.56,.67,2.92,1.39,4.09,2.17,.67,.39,1.21,.68,1.63,.88,.42,.2,.82,.29,1.21,.29,.89,0,1.5-1.22,1.84-3.67h1.92c-.06,1-.12,2.18-.21,3.55-.08,1.36-.14,3.16-.17,5.38-.03,2.23-.04,5.15-.04,8.76h-1.92c-.17-2.72-.77-5.37-1.79-7.93-1.03-2.56-2.53-4.64-4.5-6.26-1.98-1.61-4.49-2.42-7.55-2.42-2.84,0-5.19,.85-7.05,2.54-1.86,1.7-2.79,3.94-2.79,6.72,0,2.45,.61,4.49,1.84,6.13,1.22,1.64,2.91,3.17,5.05,4.59,2.14,1.42,4.57,2.99,7.3,4.71,2.78,1.78,5.28,3.55,7.51,5.3,2.22,1.75,3.98,3.69,5.26,5.8,1.28,2.11,1.92,4.67,1.92,7.68,0,3.62-.85,6.61-2.54,8.97-1.7,2.36-3.96,4.13-6.8,5.3-2.84,1.17-5.95,1.75-9.34,1.75-3.12,0-5.59-.33-7.43-1s-3.39-1.36-4.67-2.09c-1.22-.78-2.17-1.17-2.84-1.17-.89,0-1.5,1.22-1.84,3.67h-1.92c.11-1.22,.18-2.66,.21-4.3,.03-1.64,.05-3.8,.08-6.47,.03-2.67,.04-6.03,.04-10.1h1.92c.22,3.45,.85,6.67,1.88,9.68,1.03,3,2.61,5.41,4.76,7.22,2.14,1.81,4.99,2.71,8.55,2.71,2.78,0,5.26-.85,7.43-2.54,2.17-1.7,3.25-4.35,3.25-7.97,0-3.39-1.18-6.22-3.55-8.47-2.36-2.25-5.46-4.55-9.3-6.88-2.62-1.67-5.06-3.34-7.34-5.01-2.28-1.67-4.1-3.61-5.46-5.84-1.36-2.22-2.04-4.87-2.04-7.93,0-3.39,.79-6.17,2.38-8.34,1.58-2.17,3.64-3.78,6.17-4.84,2.53-1.06,5.24-1.58,8.13-1.58Z"/><path class="cls-1" d="M533.83,56.37c-.22,2.11-.38,4.16-.46,6.13-.08,1.98-.12,3.49-.12,4.55s.03,2.06,.08,3c.05,.95,.11,1.72,.17,2.34h-1.92c-.39-3.56-.99-6.37-1.79-8.43-.81-2.06-2-3.52-3.59-4.38-1.59-.86-3.8-1.29-6.63-1.29h-5.76c-1.78,0-3.13,.15-4.05,.46-.92,.31-1.54,.92-1.88,1.84-.33,.92-.5,2.35-.5,4.3v42.05c0,1.89,.17,3.31,.5,4.25,.33,.95,.96,1.57,1.88,1.88,.92,.31,2.27,.46,4.05,.46h5.42c3.17,0,5.69-.5,7.55-1.5,1.86-1,3.28-2.64,4.25-4.92,.97-2.28,1.71-5.39,2.21-9.34h1.92c-.17,1.61-.25,3.73-.25,6.34,0,1.11,.04,2.73,.12,4.84,.08,2.11,.24,4.28,.46,6.51-2.84-.11-6.04-.18-9.59-.21-3.56-.03-6.73-.04-9.51-.04h-6.88c-2.87,0-5.92,.01-9.18,.04-3.25,.03-6.3,.1-9.14,.21v-1.67c1.89-.11,3.31-.33,4.25-.67,.94-.33,1.57-1,1.88-2,.31-1,.46-2.5,.46-4.5v-41.38c0-2.06-.15-3.57-.46-4.55-.31-.97-.95-1.64-1.92-2-.97-.36-2.38-.57-4.21-.63v-1.67c2.84,.06,5.88,.11,9.14,.17,3.25,.06,6.31,.08,9.18,.08h6.88c2.56,0,5.46-.01,8.72-.04,3.25-.03,6.16-.1,8.72-.21Zm-13.85,28.53v1.67h-15.1v-1.67h15.1Zm2.42-11.01c-.22,3.17-.32,5.59-.29,7.26,.03,1.67,.04,3.2,.04,4.59s.03,2.92,.08,4.59c.05,1.67,.19,4.09,.42,7.26h-1.92c-.28-1.84-.64-3.6-1.08-5.3-.45-1.7-1.24-3.07-2.38-4.13-1.14-1.06-2.91-1.59-5.3-1.59v-1.67c2.39,0,4.13-.63,5.21-1.88,1.08-1.25,1.84-2.74,2.25-4.46,.42-1.72,.76-3.28,1.04-4.67h1.92Z"/><path class="cls-1" d="M595.98,56.37v1.67c-1.89,.11-3.31,.45-4.25,1-.95,.56-1.57,1.46-1.88,2.71-.31,1.25-.46,3.02-.46,5.3v48.72h-2.75l-35.37-51.39v40.05c0,2.34,.17,4.16,.5,5.46,.33,1.31,1.06,2.24,2.17,2.79,1.11,.56,2.81,.92,5.09,1.08v1.67c-1.06-.11-2.41-.18-4.05-.21-1.64-.03-3.18-.04-4.63-.04s-2.78,.01-4.17,.04c-1.39,.03-2.53,.1-3.42,.21v-1.67c1.84-.17,3.23-.51,4.17-1.04,.95-.53,1.58-1.43,1.92-2.71,.33-1.28,.5-3.03,.5-5.26v-39.55c0-2.06-.17-3.57-.5-4.55-.33-.97-.97-1.64-1.92-2-.95-.36-2.34-.57-4.17-.63v-1.67c.89,.06,2.03,.11,3.42,.17,1.39,.06,2.78,.08,4.17,.08,1.22,0,2.42-.03,3.59-.08,1.17-.06,2.2-.11,3.09-.17l30.45,43.55v-32.54c0-2.39-.18-4.23-.54-5.51-.36-1.28-1.1-2.21-2.21-2.79-1.11-.58-2.78-.93-5.01-1.04v-1.67c1,.06,2.34,.11,4,.17,1.67,.06,3.23,.08,4.67,.08s2.78-.03,4.17-.08c1.39-.06,2.53-.11,3.42-.17Z"/><path class="cls-1" d="M645.29,56.37v1.67c-1.89,.06-3.32,.26-4.3,.63-.97,.36-1.63,1.03-1.96,2-.33,.97-.5,2.49-.5,4.55v41.71c0,1.89,.15,3.31,.46,4.25,.31,.95,.92,1.57,1.84,1.88,.92,.31,2.24,.46,3.96,.46h5.42c3.22,0,5.78-.6,7.68-1.79,1.89-1.2,3.34-3.02,4.34-5.46,1-2.45,1.72-5.56,2.17-9.34h1.92c-.17,1.78-.25,4.12-.25,7.01,0,1.11,.04,2.74,.12,4.88,.08,2.14,.24,4.35,.46,6.63-2.84-.11-6.04-.18-9.59-.21-3.56-.03-6.73-.04-9.51-.04h-6.88c-2.87,0-5.92,.01-9.18,.04-3.25,.03-6.3,.1-9.14,.21v-1.67c1.89-.11,3.31-.33,4.25-.67,.95-.33,1.57-1,1.88-2,.3-1,.46-2.5,.46-4.5v-41.38c0-2.06-.15-3.57-.46-4.55-.31-.97-.95-1.64-1.92-2-.97-.36-2.38-.57-4.21-.63v-1.67c1.28,.06,2.93,.11,4.96,.17,2.03,.06,4.21,.08,6.55,.08,2.11,0,4.21-.03,6.3-.08,2.09-.06,3.8-.11,5.13-.17Z"/><path class="cls-1" d="M697.01,56.04l20.36,52.39c.78,2.06,1.68,3.45,2.71,4.17,1.03,.72,1.99,1.11,2.88,1.17v1.67c-1.33-.11-2.91-.18-4.71-.21-1.81-.03-3.63-.04-5.46-.04-2.34,0-4.5,.01-6.51,.04-2,.03-3.62,.1-4.84,.21v-1.67c2.84-.11,4.63-.6,5.38-1.46,.75-.86,.57-2.71-.54-5.55l-15.02-40.55,1.33-1.5-13.85,36.21c-1.33,3.34-1.97,5.92-1.92,7.76,.05,1.84,.71,3.13,1.96,3.88,1.25,.75,3.04,1.16,5.38,1.21v1.67c-1.67-.11-3.35-.18-5.05-.21-1.7-.03-3.3-.04-4.8-.04-1.33,0-2.52,.01-3.54,.04-1.03,.03-1.96,.1-2.79,.21v-1.67c1.17-.28,2.34-.97,3.5-2.09,1.17-1.11,2.28-3,3.34-5.67l19.36-49.97h2.84Zm8.76,35.37v1.67h-24.86l.83-1.67h24.03Z"/><path class="cls-1" d="M744.48,55.37c2.95,0,5.2,.33,6.76,1,1.56,.67,2.92,1.39,4.09,2.17,.67,.39,1.21,.68,1.63,.88,.42,.2,.82,.29,1.21,.29,.89,0,1.5-1.22,1.84-3.67h1.92c-.06,1-.13,2.18-.21,3.55-.08,1.36-.14,3.16-.17,5.38-.03,2.23-.04,5.15-.04,8.76h-1.92c-.17-2.72-.76-5.37-1.79-7.93-1.03-2.56-2.53-4.64-4.51-6.26-1.97-1.61-4.49-2.42-7.55-2.42-2.84,0-5.19,.85-7.05,2.54-1.86,1.7-2.79,3.94-2.79,6.72,0,2.45,.61,4.49,1.83,6.13,1.22,1.64,2.91,3.17,5.05,4.59,2.14,1.42,4.57,2.99,7.3,4.71,2.78,1.78,5.28,3.55,7.51,5.3,2.22,1.75,3.98,3.69,5.26,5.8,1.28,2.11,1.92,4.67,1.92,7.68,0,3.62-.85,6.61-2.54,8.97-1.7,2.36-3.96,4.13-6.8,5.3s-5.95,1.75-9.34,1.75c-3.12,0-5.59-.33-7.43-1-1.83-.67-3.39-1.36-4.67-2.09-1.22-.78-2.17-1.17-2.84-1.17-.89,0-1.5,1.22-1.83,3.67h-1.92c.11-1.22,.18-2.66,.21-4.3,.03-1.64,.06-3.8,.08-6.47,.03-2.67,.04-6.03,.04-10.1h1.92c.22,3.45,.85,6.67,1.88,9.68,1.03,3,2.61,5.41,4.75,7.22,2.14,1.81,4.99,2.71,8.55,2.71,2.78,0,5.26-.85,7.43-2.54,2.17-1.7,3.25-4.35,3.25-7.97,0-3.39-1.18-6.22-3.55-8.47-2.36-2.25-5.46-4.55-9.3-6.88-2.62-1.67-5.06-3.34-7.34-5.01-2.28-1.67-4.1-3.61-5.46-5.84-1.36-2.22-2.04-4.87-2.04-7.93,0-3.39,.79-6.17,2.38-8.34s3.64-3.78,6.17-4.84c2.53-1.06,5.24-1.58,8.13-1.58Z"/><path class="cls-1" d="M820.74,55.2c3.67,0,6.69,.54,9.05,1.63,2.36,1.08,4.46,2.35,6.3,3.8,1.11,.83,1.96,.93,2.54,.29,.58-.64,.99-2.15,1.21-4.55h1.92c-.11,2.11-.2,4.66-.25,7.63-.06,2.98-.08,6.94-.08,11.89h-1.92c-.39-2.45-.76-4.45-1.13-6.01-.36-1.56-.83-2.89-1.42-4-.58-1.11-1.38-2.2-2.38-3.25-1.61-2-3.59-3.45-5.92-4.34-2.34-.89-4.81-1.33-7.42-1.33-2.84,0-5.34,.71-7.51,2.13s-3.99,3.44-5.46,6.05c-1.47,2.61-2.6,5.7-3.38,9.26-.78,3.56-1.17,7.45-1.17,11.68s.42,8.27,1.25,11.81c.83,3.53,2.04,6.56,3.63,9.09,1.58,2.53,3.5,4.48,5.76,5.84,2.25,1.36,4.77,2.04,7.55,2.04,2.28,0,4.64-.46,7.09-1.38,2.45-.92,4.39-2.32,5.84-4.21,1.56-1.67,2.63-3.55,3.21-5.63,.58-2.09,1.07-4.94,1.46-8.55h1.92c0,5.12,.03,9.25,.08,12.39,.06,3.14,.14,5.8,.25,7.97h-1.92c-.22-2.39-.6-3.89-1.13-4.51-.53-.61-1.41-.53-2.63,.25-2.06,1.45-4.24,2.71-6.55,3.8-2.31,1.08-5.27,1.63-8.88,1.63-5.51,0-10.32-1.2-14.43-3.59-4.12-2.39-7.31-5.84-9.59-10.35-2.28-4.51-3.42-9.93-3.42-16.27s1.18-11.68,3.54-16.35c2.36-4.67,5.6-8.31,9.72-10.93,4.12-2.61,8.87-3.92,14.27-3.92Z"/><path class="cls-1" d="M875.13,56.04l20.36,52.39c.78,2.06,1.68,3.45,2.71,4.17,1.03,.72,1.99,1.11,2.88,1.17v1.67c-1.33-.11-2.91-.18-4.71-.21-1.81-.03-3.63-.04-5.46-.04-2.34,0-4.5,.01-6.51,.04-2,.03-3.62,.1-4.84,.21v-1.67c2.84-.11,4.63-.6,5.38-1.46,.75-.86,.57-2.71-.54-5.55l-15.02-40.55,1.33-1.5-13.85,36.21c-1.33,3.34-1.97,5.92-1.92,7.76,.05,1.84,.71,3.13,1.96,3.88,1.25,.75,3.04,1.16,5.38,1.21v1.67c-1.67-.11-3.35-.18-5.05-.21-1.7-.03-3.3-.04-4.8-.04-1.33,0-2.52,.01-3.54,.04-1.03,.03-1.96,.1-2.79,.21v-1.67c1.17-.28,2.34-.97,3.5-2.09,1.17-1.11,2.28-3,3.34-5.67l19.36-49.97h2.84Zm8.76,35.37v1.67h-24.86l.83-1.67h24.03Z"/><path class="cls-1" d="M922.6,55.37c2.95,0,5.2,.33,6.76,1,1.56,.67,2.92,1.39,4.09,2.17,.67,.39,1.21,.68,1.63,.88,.42,.2,.82,.29,1.21,.29,.89,0,1.5-1.22,1.84-3.67h1.92c-.06,1-.13,2.18-.21,3.55-.08,1.36-.14,3.16-.17,5.38-.03,2.23-.04,5.15-.04,8.76h-1.92c-.17-2.72-.76-5.37-1.79-7.93-1.03-2.56-2.53-4.64-4.51-6.26-1.97-1.61-4.49-2.42-7.55-2.42-2.84,0-5.19,.85-7.05,2.54-1.86,1.7-2.79,3.94-2.79,6.72,0,2.45,.61,4.49,1.83,6.13,1.22,1.64,2.91,3.17,5.05,4.59,2.14,1.42,4.57,2.99,7.3,4.71,2.78,1.78,5.28,3.55,7.51,5.3,2.22,1.75,3.98,3.69,5.26,5.8,1.28,2.11,1.92,4.67,1.92,7.68,0,3.62-.85,6.61-2.54,8.97-1.7,2.36-3.96,4.13-6.8,5.3s-5.95,1.75-9.34,1.75c-3.12,0-5.59-.33-7.43-1-1.83-.67-3.39-1.36-4.67-2.09-1.22-.78-2.17-1.17-2.84-1.17-.89,0-1.5,1.22-1.83,3.67h-1.92c.11-1.22,.18-2.66,.21-4.3,.03-1.64,.06-3.8,.08-6.47,.03-2.67,.04-6.03,.04-10.1h1.92c.22,3.45,.85,6.67,1.88,9.68,1.03,3,2.61,5.41,4.75,7.22,2.14,1.81,4.99,2.71,8.55,2.71,2.78,0,5.26-.85,7.43-2.54,2.17-1.7,3.25-4.35,3.25-7.97,0-3.39-1.18-6.22-3.55-8.47-2.36-2.25-5.46-4.55-9.3-6.88-2.62-1.67-5.06-3.34-7.34-5.01-2.28-1.67-4.1-3.61-5.46-5.84-1.36-2.22-2.04-4.87-2.04-7.93,0-3.39,.79-6.17,2.38-8.34s3.64-3.78,6.17-4.84c2.53-1.06,5.24-1.58,8.13-1.58Z"/><path class="cls-1" d="M974.33,56.04l20.36,52.39c.78,2.06,1.68,3.45,2.71,4.17,1.03,.72,1.99,1.11,2.88,1.17v1.67c-1.33-.11-2.91-.18-4.71-.21-1.81-.03-3.63-.04-5.46-.04-2.34,0-4.5,.01-6.51,.04-2,.03-3.62,.1-4.84,.21v-1.67c2.84-.11,4.63-.6,5.38-1.46,.75-.86,.57-2.71-.54-5.55l-15.02-40.55,1.33-1.5-13.85,36.21c-1.33,3.34-1.97,5.92-1.92,7.76,.05,1.84,.71,3.13,1.96,3.88,1.25,.75,3.04,1.16,5.38,1.21v1.67c-1.67-.11-3.35-.18-5.05-.21-1.7-.03-3.3-.04-4.8-.04-1.33,0-2.52,.01-3.54,.04-1.03,.03-1.96,.1-2.79,.21v-1.67c1.17-.28,2.34-.97,3.5-2.09,1.17-1.11,2.28-3,3.34-5.67l19.36-49.97h2.84Zm8.76,35.37v1.67h-24.86l.83-1.67h24.03Z"/><path class="cls-1" d="M1021.8,55.37c2.95,0,5.2,.33,6.76,1,1.56,.67,2.92,1.39,4.09,2.17,.67,.39,1.21,.68,1.63,.88,.42,.2,.82,.29,1.21,.29,.89,0,1.5-1.22,1.84-3.67h1.92c-.06,1-.13,2.18-.21,3.55-.08,1.36-.14,3.16-.17,5.38-.03,2.23-.04,5.15-.04,8.76h-1.92c-.17-2.72-.76-5.37-1.79-7.93-1.03-2.56-2.53-4.64-4.51-6.26-1.97-1.61-4.49-2.42-7.55-2.42-2.84,0-5.19,.85-7.05,2.54-1.86,1.7-2.79,3.94-2.79,6.72,0,2.45,.61,4.49,1.83,6.13,1.22,1.64,2.91,3.17,5.05,4.59,2.14,1.42,4.57,2.99,7.3,4.71,2.78,1.78,5.28,3.55,7.51,5.3,2.22,1.75,3.98,3.69,5.26,5.8,1.28,2.11,1.92,4.67,1.92,7.68,0,3.62-.85,6.61-2.54,8.97-1.7,2.36-3.96,4.13-6.8,5.3s-5.95,1.75-9.34,1.75c-3.12,0-5.59-.33-7.43-1-1.83-.67-3.39-1.36-4.67-2.09-1.22-.78-2.17-1.17-2.84-1.17-.89,0-1.5,1.22-1.83,3.67h-1.92c.11-1.22,.18-2.66,.21-4.3,.03-1.64,.06-3.8,.08-6.47,.03-2.67,.04-6.03,.04-10.1h1.92c.22,3.45,.85,6.67,1.88,9.68,1.03,3,2.61,5.41,4.75,7.22,2.14,1.81,4.99,2.71,8.55,2.71,2.78,0,5.26-.85,7.43-2.54,2.17-1.7,3.25-4.35,3.25-7.97,0-3.39-1.18-6.22-3.55-8.47-2.36-2.25-5.46-4.55-9.3-6.88-2.62-1.67-5.06-3.34-7.34-5.01-2.28-1.67-4.1-3.61-5.46-5.84-1.36-2.22-2.04-4.87-2.04-7.93,0-3.39,.79-6.17,2.38-8.34s3.64-3.78,6.17-4.84c2.53-1.06,5.24-1.58,8.13-1.58Z"/></g><g><rect class="cls-1" x="35.92" y="165" width="208.57" height="2.32"/><rect class="cls-1" x="828.49" y="165" width="208.57" height="2.32"/></g><g><path class="cls-2" d="M291.65,146.39l9.02,25.62,10.71-27.36,10.15,27.36,9.99-25.62h4.2l-14.35,35.97-10.04-27.36-10.76,27.36-13.12-35.97h4.2Z"/><path class="cls-2" d="M358.42,175.14c-.61,1.18-1.54,2.46-2.61,3.43-1.95,1.74-4.36,2.61-7.07,2.61-5.12,0-10.5-3.23-10.5-11.12,0-6.35,3.89-11.27,10.3-11.27,4.15,0,6.76,2.05,8.04,3.89,1.33,1.9,2.1,5.18,2,7.99h-16.55c.05,4.41,3.07,7.22,6.76,7.22,1.74,0,3.13-.51,4.36-1.54,.97-.82,1.74-1.9,2.2-2.92l3.07,1.69Zm-3.64-7.53c-.61-3.33-3.13-5.53-6.25-5.53s-5.69,2.36-6.25,5.53h12.5Z"/><path class="cls-2" d="M382.56,143.22h3.69v37.35h-3.69v-2.97c-1.23,1.59-3.54,3.59-7.28,3.59-5.38,0-10.35-3.79-10.35-11.27s4.92-11.12,10.35-11.12c4.1,0,6.3,2.25,7.28,3.54v-19.11Zm-13.83,26.7c0,4.56,2.56,7.99,6.97,7.99s7.07-3.74,7.07-7.94c0-5.48-3.79-7.89-7.07-7.89-3.64,0-6.97,2.66-6.97,7.84Z"/><path class="cls-2" d="M411.56,143.22h3.69v37.35h-3.69v-2.97c-1.23,1.59-3.54,3.59-7.28,3.59-5.38,0-10.35-3.79-10.35-11.27s4.92-11.12,10.35-11.12c4.1,0,6.3,2.25,7.28,3.54v-19.11Zm-13.83,26.7c0,4.56,2.56,7.99,6.97,7.99s7.07-3.74,7.07-7.94c0-5.48-3.79-7.89-7.07-7.89-3.64,0-6.97,2.66-6.97,7.84Z"/><path class="cls-2" d="M425.6,148.65c1.43,0,2.61,1.18,2.61,2.61s-1.18,2.61-2.61,2.61-2.61-1.18-2.61-2.61,1.18-2.61,2.61-2.61Zm1.84,10.66v21.26h-3.69v-21.26h3.69Z"/><path class="cls-2" d="M436.47,159.31h3.69v2.46c.67-.87,2.56-2.97,6.1-2.97,2.51,0,4.82,1.02,6.1,2.92,1.08,1.59,1.23,3.33,1.23,5.69v13.17h-3.69v-13.07c0-1.28-.1-2.77-.97-3.89-.72-.92-1.84-1.54-3.48-1.54-1.28,0-2.66,.36-3.74,1.64-1.43,1.69-1.54,4.2-1.54,5.74v11.12h-3.69v-21.26Z"/><path class="cls-2" d="M478.89,159.31h3.69v20.75c0,2.31,0,5.58-2.05,8.35-1.59,2.15-4.51,3.95-8.51,3.95-3.64,0-6.15-1.44-7.58-2.87-1.43-1.43-2.77-3.74-2.77-6.87h3.64c0,1.79,.72,3.38,1.64,4.41,1.54,1.69,3.48,2.05,5.12,2.05,2.61,0,4.41-.92,5.64-2.97,1.08-1.74,1.18-3.64,1.18-5.43v-3.07c-1.23,1.59-3.54,3.59-7.28,3.59-3.13,0-5.64-1.23-7.28-2.87-1.44-1.44-3.07-4.1-3.07-8.4s1.54-6.71,3.07-8.25c1.79-1.74,4.41-2.87,7.28-2.87,3.13,0,5.58,1.33,7.28,3.54v-3.02Zm-11.68,4.77c-1.79,1.84-2.15,4.1-2.15,5.84,0,1.84,.36,4.36,2.41,6.25,1.18,1.08,2.61,1.74,4.56,1.74s3.48-.61,4.66-1.79c1.43-1.38,2.41-3.64,2.41-6.15s-.92-4.71-2.25-6c-1.18-1.18-2.92-1.9-4.82-1.9-2.25,0-3.79,.97-4.82,2Z"/><path class="cls-2" d="M500.36,164.22c-.51-1.23-1.59-2.15-2.97-2.15s-2.56,.77-2.56,2.41c0,1.54,1.02,2,3.43,3.02,3.07,1.28,4.51,2.25,5.33,3.28,.92,1.13,1.13,2.25,1.13,3.43,0,4.46-3.23,6.97-7.33,6.97-.87,0-5.64-.1-7.43-5.43l3.18-1.33c.41,1.13,1.64,3.48,4.3,3.48,2.41,0,3.48-1.79,3.48-3.38,0-2-1.43-2.66-3.43-3.54-2.56-1.13-4.2-1.95-5.18-3.13-.82-1.02-.97-2.05-.97-3.13,0-3.74,2.61-5.94,6.2-5.94,1.13,0,4.15,.2,5.84,3.84l-3.02,1.59Z"/><path class="cls-2" d="M541.97,159.31h3.69v21.26h-3.69v-2.97c-1.23,1.59-3.54,3.59-7.28,3.59-5.38,0-10.35-3.79-10.35-11.27s4.92-11.12,10.35-11.12c4.1,0,6.3,2.25,7.28,3.54v-3.02Zm-13.83,10.61c0,4.56,2.56,7.99,6.97,7.99s7.07-3.74,7.07-7.94c0-5.48-3.79-7.89-7.07-7.89-3.64,0-6.97,2.66-6.97,7.84Z"/><path class="cls-2" d="M558.47,162.69v17.88h-3.69v-17.88h-2.25v-3.38h2.25v-7.69h3.69v7.69h3.69v3.38h-3.69Z"/><path class="cls-2" d="M586.4,146.39v30.59h9.43v3.59h-13.22v-34.18h3.79Z"/><path class="cls-2" d="M618.37,159.31h3.69v21.26h-3.69v-2.97c-1.23,1.59-3.54,3.59-7.28,3.59-5.38,0-10.35-3.79-10.35-11.27s4.92-11.12,10.35-11.12c4.1,0,6.3,2.25,7.28,3.54v-3.02Zm-13.83,10.61c0,4.56,2.56,7.99,6.97,7.99s7.07-3.74,7.07-7.94c0-5.48-3.79-7.89-7.07-7.89-3.64,0-6.97,2.66-6.97,7.84Z"/><path class="cls-2" d="M639.84,164.22c-.51-1.23-1.59-2.15-2.97-2.15s-2.56,.77-2.56,2.41c0,1.54,1.03,2,3.43,3.02,3.07,1.28,4.51,2.25,5.33,3.28,.92,1.13,1.13,2.25,1.13,3.43,0,4.46-3.23,6.97-7.33,6.97-.87,0-5.64-.1-7.43-5.43l3.18-1.33c.41,1.13,1.64,3.48,4.3,3.48,2.41,0,3.48-1.79,3.48-3.38,0-2-1.43-2.66-3.43-3.54-2.56-1.13-4.2-1.95-5.18-3.13-.82-1.02-.97-2.05-.97-3.13,0-3.74,2.61-5.94,6.2-5.94,1.13,0,4.15,.2,5.84,3.84l-3.02,1.59Z"/><path class="cls-2" d="M692.21,153.92c-1.08-1.08-2.71-2.36-4.46-3.18-1.79-.82-3.89-1.33-5.89-1.33-7.89,0-13.73,6.35-13.73,14.24,0,9.27,7.53,13.94,13.78,13.94,2.31,0,4.56-.67,6.35-1.59,1.95-.97,3.33-2.25,3.95-2.87v4.71c-3.79,2.72-7.74,3.33-10.3,3.33-10.15,0-17.68-7.69-17.68-17.57s7.63-17.78,17.88-17.78c2.05,0,6,.26,10.09,3.38v4.71Z"/><path class="cls-2" d="M716.61,159.31h3.69v21.26h-3.69v-2.97c-1.23,1.59-3.54,3.59-7.28,3.59-5.38,0-10.35-3.79-10.35-11.27s4.92-11.12,10.35-11.12c4.1,0,6.3,2.25,7.28,3.54v-3.02Zm-13.83,10.61c0,4.56,2.56,7.99,6.97,7.99s7.07-3.74,7.07-7.94c0-5.48-3.79-7.89-7.07-7.89-3.64,0-6.97,2.66-6.97,7.84Z"/><path class="cls-2" d="M738.08,164.22c-.51-1.23-1.59-2.15-2.97-2.15s-2.56,.77-2.56,2.41c0,1.54,1.03,2,3.43,3.02,3.07,1.28,4.51,2.25,5.33,3.28,.92,1.13,1.13,2.25,1.13,3.43,0,4.46-3.23,6.97-7.33,6.97-.87,0-5.64-.1-7.43-5.43l3.18-1.33c.41,1.13,1.64,3.48,4.3,3.48,2.41,0,3.48-1.79,3.48-3.38,0-2-1.43-2.66-3.43-3.54-2.56-1.13-4.2-1.95-5.18-3.13-.82-1.02-.97-2.05-.97-3.13,0-3.74,2.61-5.94,6.2-5.94,1.13,0,4.15,.2,5.84,3.84l-3.02,1.59Z"/><path class="cls-2" d="M765.7,159.31h3.69v21.26h-3.69v-2.97c-1.23,1.59-3.54,3.59-7.28,3.59-5.38,0-10.35-3.79-10.35-11.27s4.92-11.12,10.35-11.12c4.1,0,6.3,2.25,7.28,3.54v-3.02Zm-13.83,10.61c0,4.56,2.56,7.99,6.97,7.99s7.07-3.74,7.07-7.94c0-5.48-3.79-7.89-7.07-7.89-3.64,0-6.97,2.66-6.97,7.84Z"/><path class="cls-2" d="M787.17,164.22c-.51-1.23-1.59-2.15-2.97-2.15s-2.56,.77-2.56,2.41c0,1.54,1.03,2,3.43,3.02,3.07,1.28,4.51,2.25,5.33,3.28,.92,1.13,1.13,2.25,1.13,3.43,0,4.46-3.23,6.97-7.33,6.97-.87,0-5.64-.1-7.43-5.43l3.18-1.33c.41,1.13,1.64,3.48,4.3,3.48,2.41,0,3.48-1.79,3.48-3.38,0-2-1.43-2.66-3.43-3.54-2.56-1.13-4.2-1.95-5.18-3.13-.82-1.02-.97-2.05-.97-3.13,0-3.74,2.61-5.94,6.2-5.94,1.13,0,4.15,.2,5.84,3.84l-3.02,1.59Z"/></g></svg>