<?xml version="1.0" encoding="utf-8"?>
<!-- Generator: Adobe Illustrator 26.3.1, SVG Export Plug-In . SVG Version: 6.00 Build 0)  -->
<svg version="1.1" id="Layer_1" xmlns="http://www.w3.org/2000/svg" xmlns:xlink="http://www.w3.org/1999/xlink" x="0px" y="0px"
	 viewBox="0 0 1080 221.79" style="enable-background:new 0 0 1080 221.79;" xml:space="preserve">
<style type="text/css">
	.st0{fill:none;}
	.st1{fill:#010101;}
	.st2{fill:#FFFFFF;}
</style>
<g>
	<path d="M291.21,145.85v30.59h9.43v3.59h-13.22v-34.18H291.21z"/>
	<path d="M323.19,158.76h3.69v21.26h-3.69v-2.97c-1.23,1.59-3.54,3.59-7.28,3.59c-5.38,0-10.35-3.79-10.35-11.27
		c0-7.33,4.92-11.12,10.35-11.12c4.1,0,6.3,2.25,7.28,3.54V158.76z M309.35,169.37c0,4.56,2.56,7.99,6.97,7.99
		c4.51,0,7.07-3.74,7.07-7.94c0-5.48-3.79-7.89-7.07-7.89C312.68,161.53,309.35,164.19,309.35,169.37z"/>
	<path d="M344.66,163.68c-0.51-1.23-1.59-2.15-2.97-2.15c-1.33,0-2.56,0.77-2.56,2.41c0,1.54,1.02,2,3.43,3.02
		c3.07,1.28,4.51,2.25,5.33,3.28c0.92,1.13,1.13,2.25,1.13,3.43c0,4.46-3.23,6.97-7.33,6.97c-0.87,0-5.64-0.1-7.43-5.43l3.18-1.33
		c0.41,1.13,1.64,3.48,4.3,3.48c2.41,0,3.48-1.79,3.48-3.38c0-2-1.43-2.66-3.43-3.54c-2.56-1.13-4.2-1.95-5.18-3.13
		c-0.82-1.02-0.97-2.05-0.97-3.13c0-3.74,2.61-5.94,6.2-5.94c1.13,0,4.15,0.2,5.84,3.84L344.66,163.68z"/>
	<path d="M377.04,145.85c1.9,0,5.33,0.15,7.84,2.15c1.08,0.82,3.07,2.92,3.07,7.07c0,1.69-0.36,4.66-3.38,6.71
		c4.77,1.18,6.51,5.33,6.51,8.61s-1.64,5.94-3.48,7.38c-2.71,2.15-5.84,2.25-8.2,2.25h-8.5v-34.18H377.04z M374.69,160.86h2.87
		c2,0,6.71-0.41,6.71-5.69c0-5.64-5.53-5.74-6.61-5.74h-2.97V160.86z M374.69,176.44h4.36c2.2,0,4.36-0.15,5.99-1.43
		c1.33-0.97,2.26-2.66,2.26-4.71c0-2.72-1.59-4.3-2.92-5.02c-1.28-0.72-3.07-1.02-5.79-1.02h-3.89V176.44z"/>
	<path d="M397.85,169.47c0-6.46,4.77-11.22,11.27-11.22c6.51,0,11.27,4.77,11.27,11.22s-4.82,11.17-11.27,11.17
		C402.66,180.64,397.85,175.93,397.85,169.47z M401.64,169.47c0,5.23,3.69,7.89,7.48,7.89c3.84,0,7.48-2.72,7.48-7.89
		c0-5.23-3.59-7.94-7.48-7.94C405.23,161.53,401.64,164.29,401.64,169.47z"/>
	<path d="M444.38,142.67h3.69v37.35h-3.69v-2.97c-1.23,1.59-3.54,3.59-7.28,3.59c-5.38,0-10.35-3.79-10.35-11.27
		c0-7.33,4.92-11.12,10.35-11.12c4.1,0,6.3,2.25,7.28,3.54V142.67z M430.54,169.37c0,4.56,2.56,7.99,6.97,7.99
		c4.51,0,7.07-3.74,7.07-7.94c0-5.48-3.79-7.89-7.07-7.89C433.87,161.53,430.54,164.19,430.54,169.37z"/>
	<path d="M473.38,158.76h3.69v21.26h-3.69v-2.97c-1.23,1.59-3.54,3.59-7.28,3.59c-5.38,0-10.35-3.79-10.35-11.27
		c0-7.33,4.92-11.12,10.35-11.12c4.1,0,6.3,2.25,7.28,3.54V158.76z M459.54,169.37c0,4.56,2.56,7.99,6.97,7.99
		c4.51,0,7.07-3.74,7.07-7.94c0-5.48-3.79-7.89-7.07-7.89C462.87,161.53,459.54,164.19,459.54,169.37z"/>
	<path d="M494.85,163.68c-0.51-1.23-1.59-2.15-2.97-2.15c-1.33,0-2.56,0.77-2.56,2.41c0,1.54,1.03,2,3.43,3.02
		c3.07,1.28,4.51,2.25,5.33,3.28c0.92,1.13,1.13,2.25,1.13,3.43c0,4.46-3.23,6.97-7.33,6.97c-0.87,0-5.64-0.1-7.43-5.43l3.18-1.33
		c0.41,1.13,1.64,3.48,4.3,3.48c2.41,0,3.48-1.79,3.48-3.38c0-2-1.44-2.66-3.43-3.54c-2.56-1.13-4.2-1.95-5.17-3.13
		c-0.82-1.02-0.97-2.05-0.97-3.13c0-3.74,2.61-5.94,6.2-5.94c1.13,0,4.15,0.2,5.84,3.84L494.85,163.68z"/>
	<path d="M539.02,174.59c-0.62,1.18-1.54,2.46-2.61,3.43c-1.95,1.74-4.36,2.61-7.07,2.61c-5.12,0-10.5-3.23-10.5-11.12
		c0-6.35,3.89-11.27,10.3-11.27c4.15,0,6.76,2.05,8.04,3.89c1.33,1.9,2.1,5.18,2,7.99h-16.55c0.05,4.41,3.07,7.22,6.76,7.22
		c1.74,0,3.12-0.51,4.36-1.54c0.97-0.82,1.74-1.9,2.2-2.92L539.02,174.59z M535.38,167.06c-0.61-3.33-3.12-5.53-6.25-5.53
		c-3.13,0-5.69,2.36-6.25,5.53H535.38z"/>
	<path d="M546.86,158.76h3.69v2.46c0.67-0.87,2.56-2.97,6.1-2.97c2.51,0,4.82,1.02,6.1,2.92c1.08,1.59,1.23,3.33,1.23,5.69v13.17
		h-3.69v-13.07c0-1.28-0.1-2.77-0.97-3.89c-0.72-0.92-1.85-1.54-3.48-1.54c-1.28,0-2.66,0.36-3.74,1.64
		c-1.44,1.69-1.54,4.2-1.54,5.74v11.12h-3.69V158.76z"/>
	<path d="M591.7,145.85v30.59h9.43v3.59H587.9v-34.18H591.7z"/>
	<path d="M623.67,158.76h3.69v21.26h-3.69v-2.97c-1.23,1.59-3.54,3.59-7.28,3.59c-5.38,0-10.35-3.79-10.35-11.27
		c0-7.33,4.92-11.12,10.35-11.12c4.1,0,6.3,2.25,7.28,3.54V158.76z M609.83,169.37c0,4.56,2.56,7.99,6.97,7.99
		c4.51,0,7.07-3.74,7.07-7.94c0-5.48-3.79-7.89-7.07-7.89C613.17,161.53,609.83,164.19,609.83,169.37z"/>
	<path d="M645.14,163.68c-0.51-1.23-1.59-2.15-2.97-2.15c-1.33,0-2.56,0.77-2.56,2.41c0,1.54,1.03,2,3.43,3.02
		c3.07,1.28,4.51,2.25,5.33,3.28c0.92,1.13,1.13,2.25,1.13,3.43c0,4.46-3.23,6.97-7.33,6.97c-0.87,0-5.64-0.1-7.43-5.43l3.18-1.33
		c0.41,1.13,1.64,3.48,4.3,3.48c2.41,0,3.48-1.79,3.48-3.38c0-2-1.43-2.66-3.43-3.54c-2.56-1.13-4.2-1.95-5.18-3.13
		c-0.82-1.02-0.97-2.05-0.97-3.13c0-3.74,2.61-5.94,6.2-5.94c1.13,0,4.15,0.2,5.84,3.84L645.14,163.68z"/>
	<path d="M697.51,153.38c-1.07-1.08-2.71-2.36-4.46-3.18c-1.79-0.82-3.89-1.33-5.89-1.33c-7.89,0-13.73,6.35-13.73,14.24
		c0,9.27,7.53,13.94,13.78,13.94c2.31,0,4.56-0.67,6.35-1.59c1.95-0.97,3.33-2.25,3.95-2.87v4.71c-3.79,2.72-7.74,3.33-10.3,3.33
		c-10.14,0-17.68-7.69-17.68-17.57c0-10.2,7.63-17.78,17.88-17.78c2.05,0,6,0.26,10.09,3.38V153.38z"/>
	<path d="M721.9,158.76h3.69v21.26h-3.69v-2.97c-1.23,1.59-3.54,3.59-7.28,3.59c-5.38,0-10.35-3.79-10.35-11.27
		c0-7.33,4.92-11.12,10.35-11.12c4.1,0,6.3,2.25,7.28,3.54V158.76z M708.06,169.37c0,4.56,2.56,7.99,6.97,7.99
		c4.51,0,7.07-3.74,7.07-7.94c0-5.48-3.79-7.89-7.07-7.89C711.39,161.53,708.06,164.19,708.06,169.37z"/>
	<path d="M743.37,163.68c-0.51-1.23-1.59-2.15-2.97-2.15c-1.33,0-2.56,0.77-2.56,2.41c0,1.54,1.03,2,3.43,3.02
		c3.07,1.28,4.51,2.25,5.33,3.28c0.92,1.13,1.13,2.25,1.13,3.43c0,4.46-3.23,6.97-7.33,6.97c-0.87,0-5.64-0.1-7.43-5.43l3.18-1.33
		c0.41,1.13,1.64,3.48,4.3,3.48c2.41,0,3.48-1.79,3.48-3.38c0-2-1.44-2.66-3.43-3.54c-2.56-1.13-4.2-1.95-5.18-3.13
		c-0.82-1.02-0.97-2.05-0.97-3.13c0-3.74,2.61-5.94,6.2-5.94c1.13,0,4.15,0.2,5.84,3.84L743.37,163.68z"/>
	<path d="M770.99,158.76h3.69v21.26h-3.69v-2.97c-1.23,1.59-3.54,3.59-7.28,3.59c-5.38,0-10.35-3.79-10.35-11.27
		c0-7.33,4.92-11.12,10.35-11.12c4.1,0,6.3,2.25,7.28,3.54V158.76z M757.15,169.37c0,4.56,2.56,7.99,6.97,7.99
		c4.51,0,7.07-3.74,7.07-7.94c0-5.48-3.79-7.89-7.07-7.89C760.48,161.53,757.15,164.19,757.15,169.37z"/>
	<path d="M792.46,163.68c-0.51-1.23-1.59-2.15-2.97-2.15c-1.33,0-2.56,0.77-2.56,2.41c0,1.54,1.03,2,3.43,3.02
		c3.07,1.28,4.51,2.25,5.33,3.28c0.92,1.13,1.13,2.25,1.13,3.43c0,4.46-3.23,6.97-7.33,6.97c-0.87,0-5.64-0.1-7.43-5.43l3.18-1.33
		c0.41,1.13,1.64,3.48,4.3,3.48c2.41,0,3.48-1.79,3.48-3.38c0-2-1.44-2.66-3.43-3.54c-2.56-1.13-4.2-1.95-5.18-3.13
		c-0.82-1.02-0.97-2.05-0.97-3.13c0-3.74,2.61-5.94,6.2-5.94c1.13,0,4.15,0.2,5.84,3.84L792.46,163.68z"/>
</g>
<g>
	<path d="M34.54,55.91v1.71c-1.37,0.12-2.34,0.44-2.91,0.99c-0.57,0.54-0.84,1.31-0.81,2.31c0.03,1,0.3,2.3,0.81,3.9l13.28,39.66
		l-2.23,2.48l11.65-36.23l1.28,2.14L41.65,116.9c-0.23,0-0.46,0-0.68,0c-0.23,0-0.49,0-0.77,0c-0.23,0-0.47,0-0.73,0
		c-0.26,0-0.5,0-0.73,0l-18.5-53.8c-0.74-2.17-1.66-3.61-2.74-4.33c-1.09-0.71-2.08-1.1-3-1.16v-1.71c1.37,0.06,3,0.12,4.88,0.17
		c1.88,0.06,3.71,0.09,5.48,0.09c2.06,0,3.93-0.03,5.61-0.09C32.16,56.02,33.51,55.97,34.54,55.91z M94.85,55.91v1.71
		c-1.14,0.29-2.37,1.04-3.68,2.27c-1.31,1.23-2.43,3.27-3.34,6.12L72.06,116.9c-0.23,0-0.47,0-0.73,0c-0.26,0-0.5,0-0.73,0
		c-0.29,0-0.54,0-0.77,0c-0.23,0-0.46,0-0.69,0L50.99,62.85c-0.69-2.11-1.47-3.5-2.36-4.15c-0.89-0.66-1.73-1.01-2.53-1.07v-1.71
		c1.2,0.06,2.68,0.12,4.45,0.17c1.77,0.06,3.48,0.09,5.14,0.09c2.34,0,4.53-0.03,6.55-0.09c2.03-0.06,3.64-0.11,4.84-0.17v1.71
		c-1.71,0.06-3.07,0.24-4.07,0.56c-1,0.31-1.57,0.96-1.71,1.93c-0.14,0.97,0.13,2.54,0.81,4.71l12.59,38.72l-1.46,1.88l10.79-34.01
		c1.14-3.54,1.67-6.3,1.58-8.27c-0.09-1.97-0.74-3.37-1.97-4.2c-1.23-0.83-3.01-1.27-5.35-1.33v-1.71c1.71,0.06,3.43,0.12,5.14,0.17
		c1.71,0.06,3.37,0.09,4.97,0.09c1.43,0,2.64-0.03,3.64-0.09C93.06,56.02,93.99,55.97,94.85,55.91z"/>
	<path d="M141.71,55.91c-0.23,2.17-0.39,4.27-0.47,6.3c-0.09,2.03-0.13,3.58-0.13,4.67c0,1.09,0.03,2.11,0.08,3.08
		c0.06,0.97,0.11,1.77,0.17,2.4h-1.97c-0.4-3.65-1.01-6.54-1.84-8.65c-0.83-2.11-2.06-3.61-3.68-4.5c-1.63-0.88-3.9-1.33-6.81-1.33
		h-5.91c-1.83,0-3.21,0.16-4.15,0.47c-0.94,0.31-1.58,0.94-1.93,1.88s-0.51,2.41-0.51,4.41v43.17c0,1.94,0.17,3.4,0.51,4.37
		c0.34,0.97,0.99,1.61,1.93,1.93c0.94,0.31,2.33,0.47,4.15,0.47h5.57c3.25,0,5.84-0.51,7.75-1.54c1.91-1.03,3.37-2.71,4.37-5.05
		c1-2.34,1.76-5.54,2.27-9.59h1.97c-0.17,1.66-0.26,3.83-0.26,6.51c0,1.14,0.04,2.8,0.13,4.97c0.08,2.17,0.24,4.4,0.47,6.68
		c-2.91-0.11-6.2-0.18-9.85-0.21c-3.66-0.03-6.91-0.04-9.76-0.04c-1.77,0-4.13,0-7.07,0c-2.94,0-6.08,0.01-9.42,0.04
		c-3.34,0.03-6.47,0.1-9.38,0.21v-1.71c1.94-0.11,3.4-0.34,4.37-0.69c0.97-0.34,1.61-1.03,1.93-2.06c0.31-1.03,0.47-2.57,0.47-4.63
		V64.99c0-2.11-0.16-3.67-0.47-4.67c-0.31-1-0.97-1.68-1.97-2.06c-1-0.37-2.44-0.58-4.33-0.64v-1.71c2.91,0.06,6.04,0.12,9.38,0.17
		c3.34,0.06,6.48,0.09,9.42,0.09c2.94,0,5.3,0,7.07,0c2.63,0,5.61-0.01,8.95-0.04C136.09,56.09,139.08,56.02,141.71,55.91z
		 M127.48,85.2v1.71h-15.5V85.2H127.48z M129.97,73.9c-0.23,3.26-0.33,5.74-0.3,7.45c0.03,1.71,0.04,3.28,0.04,4.71
		c0,1.43,0.03,3,0.09,4.71c0.06,1.71,0.2,4.2,0.43,7.45h-1.97c-0.29-1.88-0.66-3.7-1.11-5.44c-0.46-1.74-1.27-3.15-2.44-4.24
		c-1.17-1.08-2.99-1.63-5.44-1.63V85.2c2.45,0,4.24-0.64,5.35-1.93c1.11-1.28,1.88-2.81,2.31-4.58c0.43-1.77,0.78-3.37,1.07-4.8
		H129.97z"/>
	<path d="M175.2,55.91c10.56,0,18.42,2.56,23.56,7.67c5.14,5.11,7.71,12.44,7.71,21.97c0,6.23-1.26,11.67-3.77,16.32
		c-2.51,4.66-6.15,8.27-10.92,10.84c-4.77,2.57-10.55,3.85-17.35,3.85c-1.26,0-3.13-0.04-5.61-0.13c-2.48-0.09-4.67-0.13-6.55-0.13
		c-2.17,0-4.3,0.01-6.38,0.04c-2.08,0.03-3.78,0.1-5.1,0.21v-1.71c1.94-0.11,3.4-0.34,4.37-0.69c0.97-0.34,1.61-1.03,1.93-2.06
		c0.31-1.03,0.47-2.57,0.47-4.63V64.99c0-2.11-0.16-3.67-0.47-4.67c-0.31-1-0.97-1.68-1.97-2.06c-1-0.37-2.44-0.58-4.33-0.64v-1.71
		c1.31,0.06,3.01,0.13,5.1,0.21c2.08,0.09,4.15,0.1,6.21,0.04c2.06-0.06,4.35-0.11,6.9-0.17C171.53,55.94,173.6,55.91,175.2,55.91z
		 M173.74,57.45c-2.63,0-4.34,0.49-5.14,1.46c-0.8,0.97-1.2,2.94-1.2,5.91v42.83c0,2.97,0.41,4.94,1.24,5.91
		c0.83,0.97,2.55,1.46,5.18,1.46c5.77,0,10.25-1.13,13.45-3.38c3.2-2.25,5.45-5.55,6.77-9.89c1.31-4.34,1.97-9.62,1.97-15.85
		c0-9.59-1.66-16.73-4.97-21.42C187.73,59.79,181.96,57.45,173.74,57.45z"/>
	<path d="M237.9,55.91c10.56,0,18.42,2.56,23.56,7.67c5.14,5.11,7.71,12.44,7.71,21.97c0,6.23-1.26,11.67-3.77,16.32
		c-2.51,4.66-6.15,8.27-10.92,10.84c-4.77,2.57-10.55,3.85-17.35,3.85c-1.26,0-3.13-0.04-5.61-0.13c-2.48-0.09-4.67-0.13-6.55-0.13
		c-2.17,0-4.3,0.01-6.38,0.04c-2.08,0.03-3.78,0.1-5.1,0.21v-1.71c1.94-0.11,3.4-0.34,4.37-0.69c0.97-0.34,1.61-1.03,1.93-2.06
		c0.31-1.03,0.47-2.57,0.47-4.63V64.99c0-2.11-0.16-3.67-0.47-4.67c-0.31-1-0.97-1.68-1.97-2.06c-1-0.37-2.44-0.58-4.33-0.64v-1.71
		c1.31,0.06,3.01,0.13,5.1,0.21c2.08,0.09,4.15,0.1,6.21,0.04c2.06-0.06,4.35-0.11,6.9-0.17C234.23,55.94,236.3,55.91,237.9,55.91z
		 M236.45,57.45c-2.63,0-4.34,0.49-5.14,1.46c-0.8,0.97-1.2,2.94-1.2,5.91v42.83c0,2.97,0.41,4.94,1.24,5.91
		c0.83,0.97,2.55,1.46,5.18,1.46c5.77,0,10.25-1.13,13.45-3.38c3.2-2.25,5.45-5.55,6.77-9.89c1.31-4.34,1.97-9.62,1.97-15.85
		c0-9.59-1.66-16.73-4.97-21.42C250.44,59.79,244.67,57.45,236.45,57.45z"/>
	<path d="M299.58,55.91v1.71c-1.88,0.06-3.31,0.27-4.28,0.64c-0.97,0.37-1.63,1.06-1.97,2.06c-0.34,1-0.51,2.56-0.51,4.67v42.49
		c0,2.06,0.17,3.6,0.51,4.63c0.34,1.03,1,1.71,1.97,2.06c0.97,0.34,2.4,0.57,4.28,0.69v1.71c-1.37-0.11-3.1-0.18-5.18-0.21
		c-2.08-0.03-4.21-0.04-6.38-0.04c-2.4,0-4.64,0.01-6.72,0.04c-2.08,0.03-3.78,0.1-5.1,0.21v-1.71c1.94-0.11,3.4-0.34,4.37-0.69
		c0.97-0.34,1.61-1.03,1.93-2.06c0.31-1.03,0.47-2.57,0.47-4.63V64.99c0-2.11-0.16-3.67-0.47-4.67c-0.32-1-0.97-1.68-1.97-2.06
		c-1-0.37-2.44-0.58-4.33-0.64v-1.71c1.31,0.06,3.01,0.12,5.1,0.17c2.08,0.06,4.33,0.09,6.72,0.09c2.17,0,4.3-0.03,6.38-0.09
		C296.48,56.02,298.21,55.97,299.58,55.91z"/>
	<path d="M361,55.91v1.71c-1.94,0.12-3.4,0.46-4.37,1.03c-0.97,0.57-1.61,1.5-1.93,2.78c-0.31,1.29-0.47,3.1-0.47,5.44v50.03
		c-0.46,0-0.91,0-1.37,0c-0.46,0-0.94,0-1.46,0l-36.32-52.77v41.12c0,2.4,0.17,4.27,0.51,5.61c0.34,1.34,1.08,2.3,2.23,2.87
		c1.14,0.57,2.88,0.94,5.23,1.11v1.71c-1.09-0.11-2.47-0.18-4.15-0.21c-1.69-0.03-3.27-0.04-4.75-0.04c-1.43,0-2.86,0.01-4.28,0.04
		c-1.43,0.03-2.6,0.1-3.51,0.21v-1.71c1.88-0.17,3.31-0.53,4.28-1.07c0.97-0.54,1.63-1.47,1.97-2.78c0.34-1.31,0.51-3.11,0.51-5.4
		v-40.6c0-2.11-0.17-3.67-0.51-4.67c-0.34-1-1-1.68-1.97-2.06c-0.97-0.37-2.4-0.58-4.28-0.64v-1.71c0.91,0.06,2.08,0.12,3.51,0.17
		c1.43,0.06,2.86,0.09,4.28,0.09c1.26,0,2.48-0.03,3.68-0.09c1.2-0.06,2.26-0.11,3.17-0.17l31.27,44.72V67.22
		c0-2.45-0.19-4.34-0.56-5.65c-0.37-1.31-1.13-2.27-2.27-2.87c-1.14-0.6-2.86-0.96-5.14-1.07v-1.71c1.03,0.06,2.4,0.12,4.11,0.17
		c1.71,0.06,3.31,0.09,4.8,0.09c1.43,0,2.85-0.03,4.28-0.09C358.92,56.02,360.09,55.97,361,55.91z"/>
	<path d="M396.29,54.71c3.77,0,6.82,0.56,9.17,1.67c2.34,1.11,4.48,2.41,6.42,3.9c0.74,0.57,1.31,0.86,1.71,0.86
		c1.08,0,1.8-1.74,2.14-5.23h1.97c-0.12,2.17-0.2,4.78-0.26,7.84c-0.06,3.06-0.09,7.12-0.09,12.21h-1.97
		c-0.4-2.74-0.93-5.28-1.58-7.62c-0.66-2.34-1.79-4.34-3.38-6c-1.54-1.83-3.55-3.25-6.04-4.28c-2.48-1.03-5.01-1.54-7.58-1.54
		c-2.97,0-5.6,0.73-7.88,2.18c-2.28,1.46-4.21,3.53-5.78,6.21c-1.57,2.69-2.77,5.84-3.6,9.47c-0.83,3.63-1.24,7.61-1.24,11.95
		c0,10.28,1.58,17.8,4.75,22.57c3.17,4.77,7.95,7.15,14.35,7.15c1.83,0,3.41-0.26,4.75-0.77c1.34-0.51,2.41-1.03,3.21-1.54
		c0.97-0.69,1.6-1.36,1.88-2.01c0.29-0.66,0.43-1.53,0.43-2.61v-8.31c0-2.46-0.21-4.27-0.64-5.44c-0.43-1.17-1.27-1.97-2.53-2.4
		c-1.26-0.43-3.08-0.67-5.48-0.73v-1.71c1.08,0.06,2.37,0.1,3.85,0.13c1.48,0.03,3.04,0.06,4.67,0.09c1.63,0.03,3.1,0.04,4.41,0.04
		c2.06,0,3.93-0.03,5.61-0.09c1.68-0.06,3.07-0.11,4.15-0.17v1.71c-1.77,0.12-2.91,0.57-3.43,1.37c-0.51,0.8-0.77,2.8-0.77,6v16.96
		h-1.71c-0.06-0.97-0.27-2.03-0.64-3.17c-0.37-1.14-0.93-1.71-1.67-1.71c-0.4,0-0.81,0.09-1.24,0.26c-0.43,0.17-1.16,0.6-2.18,1.29
		c-2,1.37-4.08,2.47-6.25,3.3c-2.17,0.83-4.63,1.24-7.37,1.24c-9.25,0-16.39-2.7-21.42-8.1c-5.03-5.4-7.54-12.89-7.54-22.49
		c0-6.62,1.24-12.36,3.73-17.22c2.48-4.85,5.88-8.61,10.19-11.26C385.74,56.04,390.7,54.71,396.29,54.71z"/>
	<path d="M447.09,54.88c3.03,0,5.34,0.34,6.94,1.03c1.6,0.69,3,1.43,4.2,2.23c0.69,0.4,1.24,0.7,1.67,0.9
		c0.43,0.2,0.84,0.3,1.24,0.3c0.91,0,1.54-1.26,1.88-3.77h1.97c-0.06,1.03-0.13,2.24-0.21,3.64c-0.08,1.4-0.14,3.24-0.17,5.52
		c-0.03,2.29-0.04,5.28-0.04,8.99h-1.97c-0.17-2.8-0.79-5.51-1.84-8.14c-1.06-2.63-2.6-4.77-4.63-6.42
		c-2.03-1.66-4.61-2.48-7.75-2.48c-2.91,0-5.33,0.87-7.24,2.61c-1.91,1.74-2.87,4.04-2.87,6.9c0,2.51,0.63,4.61,1.88,6.3
		c1.26,1.69,2.98,3.26,5.18,4.71c2.2,1.46,4.7,3.07,7.5,4.84c2.85,1.83,5.42,3.64,7.71,5.44c2.28,1.8,4.08,3.78,5.4,5.95
		c1.31,2.17,1.97,4.8,1.97,7.88c0,3.71-0.87,6.78-2.61,9.21c-1.74,2.43-4.07,4.24-6.98,5.44c-2.91,1.2-6.11,1.8-9.59,1.8
		c-3.2,0-5.74-0.34-7.62-1.03c-1.88-0.69-3.48-1.4-4.8-2.14c-1.26-0.8-2.23-1.2-2.91-1.2c-0.91,0-1.54,1.26-1.88,3.77h-1.97
		c0.11-1.26,0.18-2.73,0.21-4.41c0.03-1.68,0.06-3.9,0.08-6.64c0.03-2.74,0.04-6.2,0.04-10.37h1.97c0.23,3.54,0.87,6.85,1.93,9.94
		c1.06,3.08,2.68,5.55,4.88,7.41c2.2,1.86,5.12,2.78,8.78,2.78c2.86,0,5.4-0.87,7.62-2.61c2.23-1.74,3.34-4.47,3.34-8.18
		c0-3.48-1.21-6.38-3.64-8.69c-2.43-2.31-5.61-4.67-9.55-7.07c-2.69-1.71-5.2-3.43-7.54-5.14c-2.34-1.71-4.21-3.71-5.61-6
		c-1.4-2.28-2.1-5-2.1-8.14c0-3.48,0.81-6.34,2.44-8.57c1.63-2.23,3.74-3.88,6.34-4.97C441.34,55.42,444.12,54.88,447.09,54.88z"/>
	<path d="M518.7,55.57l20.9,53.8c0.8,2.11,1.73,3.54,2.78,4.28c1.06,0.74,2.04,1.14,2.96,1.2v1.71c-1.37-0.11-2.98-0.18-4.84-0.21
		c-1.86-0.03-3.73-0.04-5.61-0.04c-2.4,0-4.62,0.01-6.68,0.04c-2.06,0.03-3.71,0.1-4.97,0.21v-1.71c2.91-0.11,4.75-0.61,5.53-1.5
		c0.77-0.88,0.58-2.78-0.56-5.7l-15.42-41.63l1.37-1.54l-14.22,37.18c-1.37,3.43-2.03,6.08-1.97,7.97c0.06,1.88,0.73,3.21,2.01,3.98
		c1.29,0.77,3.13,1.19,5.53,1.24v1.71c-1.71-0.11-3.44-0.18-5.18-0.21c-1.74-0.03-3.38-0.04-4.93-0.04c-1.37,0-2.58,0.01-3.64,0.04
		c-1.06,0.03-2.01,0.1-2.87,0.21v-1.71c1.2-0.29,2.4-1,3.6-2.14c1.2-1.14,2.34-3.08,3.43-5.82l19.87-51.31c0.46,0,0.94,0,1.46,0
		C517.76,55.57,518.25,55.57,518.7,55.57z M527.7,91.89v1.71h-25.53l0.86-1.71H527.7z"/>
	<path d="M592.12,55.91c-0.23,2.4-0.39,4.73-0.47,6.98c-0.09,2.26-0.13,3.98-0.13,5.18c0,1.31,0.03,2.57,0.09,3.77
		c0.06,1.2,0.11,2.23,0.17,3.08h-1.97c-0.57-4.28-1.33-7.65-2.27-10.11c-0.94-2.46-2.3-4.23-4.07-5.31
		c-1.77-1.08-4.31-1.63-7.62-1.63h-3.68v48.83c0,2.28,0.21,4,0.64,5.14c0.43,1.14,1.29,1.9,2.57,2.27c1.29,0.37,3.16,0.61,5.61,0.73
		v1.71c-1.6-0.11-3.66-0.18-6.17-0.21c-2.51-0.03-5.08-0.04-7.71-0.04c-2.74,0-5.33,0.01-7.75,0.04c-2.43,0.03-4.38,0.1-5.87,0.21
		v-1.71c2.46-0.11,4.31-0.36,5.57-0.73c1.26-0.37,2.11-1.13,2.57-2.27c0.46-1.14,0.68-2.85,0.68-5.14V57.88h-3.77
		c-3.2,0-5.71,0.54-7.54,1.63c-1.83,1.09-3.2,2.86-4.11,5.31c-0.91,2.46-1.66,5.82-2.23,10.11h-1.97c0.11-0.86,0.18-1.88,0.21-3.08
		c0.03-1.2,0.04-2.45,0.04-3.77c0-1.2-0.04-2.93-0.13-5.18c-0.09-2.25-0.24-4.58-0.47-6.98c2.46,0.06,5.14,0.12,8.05,0.17
		c2.91,0.06,5.85,0.09,8.82,0.09c2.97,0,5.65,0,8.05,0s5.05,0,7.97,0c2.91,0,5.85-0.03,8.82-0.09
		C587.03,56.02,589.72,55.97,592.12,55.91z"/>
	<path d="M640.26,55.91v1.71c-1.94,0.06-3.41,0.27-4.41,0.64c-1,0.37-1.67,1.06-2.01,2.06c-0.34,1-0.51,2.56-0.51,4.67v42.83
		c0,1.94,0.16,3.4,0.47,4.37c0.31,0.97,0.94,1.61,1.88,1.93c0.94,0.31,2.3,0.47,4.07,0.47h5.57c3.31,0,5.94-0.61,7.88-1.84
		c1.94-1.23,3.43-3.1,4.45-5.61c1.03-2.51,1.77-5.71,2.23-9.59h1.97c-0.17,1.83-0.26,4.23-0.26,7.2c0,1.14,0.04,2.81,0.13,5.01
		c0.08,2.2,0.24,4.47,0.47,6.81c-2.91-0.11-6.2-0.18-9.85-0.21c-3.66-0.03-6.91-0.04-9.77-0.04c-1.77,0-4.13,0-7.07,0
		c-2.94,0-6.08,0.01-9.42,0.04c-3.34,0.03-6.47,0.1-9.38,0.21v-1.71c1.94-0.11,3.4-0.34,4.37-0.69c0.97-0.34,1.61-1.03,1.93-2.06
		c0.31-1.03,0.47-2.57,0.47-4.63V64.99c0-2.11-0.16-3.67-0.47-4.67c-0.31-1-0.97-1.68-1.97-2.06c-1-0.37-2.44-0.58-4.33-0.64v-1.71
		c1.31,0.06,3.01,0.12,5.1,0.17c2.08,0.06,4.33,0.09,6.72,0.09c2.17,0,4.33-0.03,6.47-0.09C637.13,56.02,638.89,55.97,640.26,55.91z
		"/>
	<path d="M693.37,55.57l20.9,53.8c0.8,2.11,1.73,3.54,2.78,4.28c1.06,0.74,2.04,1.14,2.96,1.2v1.71c-1.37-0.11-2.98-0.18-4.84-0.21
		c-1.86-0.03-3.73-0.04-5.61-0.04c-2.4,0-4.62,0.01-6.68,0.04c-2.06,0.03-3.71,0.1-4.97,0.21v-1.71c2.91-0.11,4.75-0.61,5.53-1.5
		c0.77-0.88,0.58-2.78-0.56-5.7l-15.42-41.63l1.37-1.54l-14.22,37.18c-1.37,3.43-2.03,6.08-1.97,7.97c0.06,1.88,0.73,3.21,2.01,3.98
		c1.29,0.77,3.13,1.19,5.53,1.24v1.71c-1.71-0.11-3.44-0.18-5.18-0.21c-1.74-0.03-3.38-0.04-4.93-0.04c-1.37,0-2.58,0.01-3.64,0.04
		c-1.06,0.03-2.01,0.1-2.87,0.21v-1.71c1.2-0.29,2.4-1,3.6-2.14c1.2-1.14,2.34-3.08,3.43-5.82l19.87-51.31c0.46,0,0.94,0,1.46,0
		C692.42,55.57,692.91,55.57,693.37,55.57z M702.36,91.89v1.71h-25.53l0.86-1.71H702.36z"/>
	<path d="M742.11,54.88c3.03,0,5.34,0.34,6.94,1.03c1.6,0.69,3,1.43,4.2,2.23c0.68,0.4,1.24,0.7,1.67,0.9
		c0.43,0.2,0.84,0.3,1.24,0.3c0.91,0,1.54-1.26,1.88-3.77h1.97c-0.06,1.03-0.13,2.24-0.21,3.64c-0.09,1.4-0.14,3.24-0.17,5.52
		c-0.03,2.29-0.04,5.28-0.04,8.99h-1.97c-0.17-2.8-0.79-5.51-1.84-8.14c-1.06-2.63-2.6-4.77-4.63-6.42
		c-2.03-1.66-4.61-2.48-7.75-2.48c-2.91,0-5.33,0.87-7.24,2.61c-1.91,1.74-2.87,4.04-2.87,6.9c0,2.51,0.63,4.61,1.88,6.3
		c1.26,1.69,2.98,3.26,5.18,4.71c2.2,1.46,4.7,3.07,7.5,4.84c2.86,1.83,5.42,3.64,7.71,5.44c2.28,1.8,4.08,3.78,5.4,5.95
		c1.31,2.17,1.97,4.8,1.97,7.88c0,3.71-0.87,6.78-2.61,9.21c-1.74,2.43-4.07,4.24-6.98,5.44c-2.91,1.2-6.11,1.8-9.59,1.8
		c-3.2,0-5.74-0.34-7.62-1.03c-1.88-0.69-3.48-1.4-4.8-2.14c-1.26-0.8-2.23-1.2-2.91-1.2c-0.91,0-1.54,1.26-1.88,3.77h-1.97
		c0.11-1.26,0.18-2.73,0.21-4.41c0.03-1.68,0.06-3.9,0.09-6.64c0.03-2.74,0.04-6.2,0.04-10.37h1.97c0.23,3.54,0.87,6.85,1.93,9.94
		c1.06,3.08,2.68,5.55,4.88,7.41c2.2,1.86,5.12,2.78,8.78,2.78c2.86,0,5.4-0.87,7.62-2.61c2.23-1.74,3.34-4.47,3.34-8.18
		c0-3.48-1.21-6.38-3.64-8.69c-2.43-2.31-5.61-4.67-9.55-7.07c-2.68-1.71-5.2-3.43-7.54-5.14c-2.34-1.71-4.21-3.71-5.61-6
		c-1.4-2.28-2.1-5-2.1-8.14c0-3.48,0.81-6.34,2.44-8.57c1.63-2.23,3.74-3.88,6.34-4.97C736.35,55.42,739.14,54.88,742.11,54.88z"/>
	<path d="M820.4,54.71c3.77,0,6.87,0.56,9.29,1.67c2.43,1.11,4.58,2.41,6.47,3.9c1.14,0.86,2.01,0.96,2.61,0.3
		c0.6-0.66,1.01-2.21,1.24-4.67h1.97c-0.12,2.17-0.2,4.78-0.26,7.84c-0.06,3.06-0.09,7.12-0.09,12.21h-1.97
		c-0.4-2.51-0.79-4.57-1.16-6.17c-0.37-1.6-0.86-2.97-1.46-4.11c-0.6-1.14-1.41-2.26-2.44-3.34c-1.66-2.06-3.68-3.54-6.08-4.45
		c-2.4-0.91-4.94-1.37-7.62-1.37c-2.91,0-5.48,0.73-7.71,2.18c-2.23,1.46-4.1,3.53-5.61,6.21c-1.51,2.69-2.67,5.85-3.47,9.51
		c-0.8,3.66-1.2,7.65-1.2,11.99c0,4.45,0.43,8.5,1.29,12.12c0.86,3.63,2.1,6.74,3.73,9.34c1.63,2.6,3.6,4.6,5.91,6
		c2.31,1.4,4.9,2.1,7.75,2.1c2.34,0,4.77-0.47,7.28-1.41c2.51-0.94,4.51-2.38,6-4.33c1.6-1.71,2.7-3.64,3.3-5.78s1.1-5.07,1.5-8.78
		h1.97c0,5.25,0.03,9.5,0.09,12.72c0.06,3.23,0.14,5.95,0.26,8.18h-1.97c-0.23-2.45-0.61-4-1.16-4.63c-0.54-0.63-1.44-0.54-2.7,0.26
		c-2.11,1.49-4.36,2.78-6.72,3.9c-2.37,1.11-5.41,1.67-9.12,1.67c-5.65,0-10.59-1.23-14.82-3.68c-4.23-2.45-7.51-6-9.85-10.62
		c-2.34-4.63-3.51-10.19-3.51-16.7c0-6.4,1.21-11.99,3.64-16.79c2.43-4.8,5.75-8.54,9.98-11.22
		C809.98,56.05,814.86,54.71,820.4,54.71z"/>
	<path d="M876.25,55.57l20.9,53.8c0.8,2.11,1.73,3.54,2.78,4.28c1.06,0.74,2.04,1.14,2.96,1.2v1.71c-1.37-0.11-2.98-0.18-4.84-0.21
		c-1.86-0.03-3.73-0.04-5.61-0.04c-2.4,0-4.62,0.01-6.68,0.04c-2.06,0.03-3.71,0.1-4.97,0.21v-1.71c2.91-0.11,4.75-0.61,5.53-1.5
		c0.77-0.88,0.58-2.78-0.56-5.7l-15.42-41.63l1.37-1.54l-14.22,37.18c-1.37,3.43-2.03,6.08-1.97,7.97c0.06,1.88,0.73,3.21,2.01,3.98
		c1.29,0.77,3.13,1.19,5.53,1.24v1.71c-1.71-0.11-3.44-0.18-5.18-0.21c-1.74-0.03-3.38-0.04-4.93-0.04c-1.37,0-2.58,0.01-3.64,0.04
		c-1.06,0.03-2.01,0.1-2.87,0.21v-1.71c1.2-0.29,2.4-1,3.6-2.14c1.2-1.14,2.34-3.08,3.43-5.82l19.87-51.31c0.46,0,0.94,0,1.46,0
		C875.31,55.57,875.79,55.57,876.25,55.57z M885.25,91.89v1.71h-25.53l0.86-1.71H885.25z"/>
	<path d="M924.99,54.88c3.03,0,5.34,0.34,6.94,1.03c1.6,0.69,3,1.43,4.2,2.23c0.68,0.4,1.24,0.7,1.67,0.9
		c0.43,0.2,0.84,0.3,1.24,0.3c0.91,0,1.54-1.26,1.88-3.77h1.97c-0.06,1.03-0.13,2.24-0.21,3.64c-0.09,1.4-0.14,3.24-0.17,5.52
		c-0.03,2.29-0.04,5.28-0.04,8.99h-1.97c-0.17-2.8-0.79-5.51-1.84-8.14c-1.06-2.63-2.6-4.77-4.63-6.42
		c-2.03-1.66-4.61-2.48-7.75-2.48c-2.91,0-5.33,0.87-7.24,2.61c-1.91,1.74-2.87,4.04-2.87,6.9c0,2.51,0.63,4.61,1.88,6.3
		c1.26,1.69,2.98,3.26,5.18,4.71c2.2,1.46,4.7,3.07,7.5,4.84c2.86,1.83,5.42,3.64,7.71,5.44c2.28,1.8,4.08,3.78,5.4,5.95
		c1.31,2.17,1.97,4.8,1.97,7.88c0,3.71-0.87,6.78-2.61,9.21c-1.74,2.43-4.07,4.24-6.98,5.44c-2.91,1.2-6.11,1.8-9.59,1.8
		c-3.2,0-5.74-0.34-7.62-1.03c-1.88-0.69-3.48-1.4-4.8-2.14c-1.26-0.8-2.23-1.2-2.91-1.2c-0.91,0-1.54,1.26-1.88,3.77h-1.97
		c0.11-1.26,0.18-2.73,0.21-4.41c0.03-1.68,0.06-3.9,0.09-6.64c0.03-2.74,0.04-6.2,0.04-10.37h1.97c0.23,3.54,0.87,6.85,1.93,9.94
		c1.06,3.08,2.68,5.55,4.88,7.41c2.2,1.86,5.12,2.78,8.78,2.78c2.86,0,5.4-0.87,7.62-2.61c2.23-1.74,3.34-4.47,3.34-8.18
		c0-3.48-1.21-6.38-3.64-8.69c-2.43-2.31-5.61-4.67-9.55-7.07c-2.68-1.71-5.2-3.43-7.54-5.14c-2.34-1.71-4.21-3.71-5.61-6
		c-1.4-2.28-2.1-5-2.1-8.14c0-3.48,0.81-6.34,2.44-8.57c1.63-2.23,3.74-3.88,6.34-4.97C919.24,55.42,922.02,54.88,924.99,54.88z"/>
	<path d="M978.1,55.57l20.9,53.8c0.8,2.11,1.73,3.54,2.78,4.28c1.06,0.74,2.04,1.14,2.96,1.2v1.71c-1.37-0.11-2.98-0.18-4.84-0.21
		c-1.86-0.03-3.73-0.04-5.61-0.04c-2.4,0-4.62,0.01-6.68,0.04c-2.06,0.03-3.71,0.1-4.97,0.21v-1.71c2.91-0.11,4.75-0.61,5.53-1.5
		c0.77-0.88,0.58-2.78-0.56-5.7l-15.42-41.63l1.37-1.54l-14.22,37.18c-1.37,3.43-2.03,6.08-1.97,7.97c0.06,1.88,0.73,3.21,2.01,3.98
		c1.29,0.77,3.13,1.19,5.53,1.24v1.71c-1.71-0.11-3.44-0.18-5.18-0.21c-1.74-0.03-3.38-0.04-4.93-0.04c-1.37,0-2.58,0.01-3.64,0.04
		c-1.06,0.03-2.01,0.1-2.87,0.21v-1.71c1.2-0.29,2.4-1,3.6-2.14c1.2-1.14,2.34-3.08,3.43-5.82l19.87-51.31c0.46,0,0.94,0,1.46,0
		C977.16,55.57,977.65,55.57,978.1,55.57z M987.1,91.89v1.71h-25.53l0.86-1.71H987.1z"/>
	<path d="M1026.85,54.88c3.03,0,5.34,0.34,6.94,1.03c1.6,0.69,3,1.43,4.2,2.23c0.68,0.4,1.24,0.7,1.67,0.9
		c0.43,0.2,0.84,0.3,1.24,0.3c0.91,0,1.54-1.26,1.88-3.77h1.97c-0.06,1.03-0.13,2.24-0.21,3.64c-0.09,1.4-0.14,3.24-0.17,5.52
		c-0.03,2.29-0.04,5.28-0.04,8.99h-1.97c-0.17-2.8-0.79-5.51-1.84-8.14c-1.06-2.63-2.6-4.77-4.63-6.42
		c-2.03-1.66-4.61-2.48-7.75-2.48c-2.91,0-5.33,0.87-7.24,2.61c-1.91,1.74-2.87,4.04-2.87,6.9c0,2.51,0.63,4.61,1.88,6.3
		c1.26,1.69,2.98,3.26,5.18,4.71c2.2,1.46,4.7,3.07,7.5,4.84c2.86,1.83,5.42,3.64,7.71,5.44c2.28,1.8,4.08,3.78,5.4,5.95
		c1.31,2.17,1.97,4.8,1.97,7.88c0,3.71-0.87,6.78-2.61,9.21c-1.74,2.43-4.07,4.24-6.98,5.44c-2.91,1.2-6.11,1.8-9.59,1.8
		c-3.2,0-5.74-0.34-7.62-1.03c-1.88-0.69-3.48-1.4-4.8-2.14c-1.26-0.8-2.23-1.2-2.91-1.2c-0.91,0-1.54,1.26-1.88,3.77h-1.97
		c0.11-1.26,0.18-2.73,0.21-4.41c0.03-1.68,0.06-3.9,0.09-6.64c0.03-2.74,0.04-6.2,0.04-10.37h1.97c0.23,3.54,0.87,6.85,1.93,9.94
		c1.06,3.08,2.68,5.55,4.88,7.41c2.2,1.86,5.12,2.78,8.78,2.78c2.86,0,5.4-0.87,7.62-2.61c2.23-1.74,3.34-4.47,3.34-8.18
		c0-3.48-1.21-6.38-3.64-8.69c-2.43-2.31-5.61-4.67-9.55-7.07c-2.68-1.71-5.2-3.43-7.54-5.14c-2.34-1.71-4.21-3.71-5.61-6
		c-1.4-2.28-2.1-5-2.1-8.14c0-3.48,0.81-6.34,2.44-8.57c1.63-2.23,3.74-3.88,6.34-4.97C1021.09,55.42,1023.88,54.88,1026.85,54.88z"
		/>
</g>
<g>
	<rect x="35.92" y="165" class="st1" width="208.57" height="2.32"/>
	<rect x="828.49" y="165" class="st1" width="208.57" height="2.32"/>
</g>
</svg>
