<svg xmlns="http://www.w3.org/2000/svg" xmlns:xlink="http://www.w3.org/1999/xlink" version="1.1" id="Layer_1" x="0px" y="0px" style="enable-background:new 0 0 1080 1080;" xml:space="preserve" viewBox="82.8 478.1 945 227.3">
<style type="text/css">
	.st0{fill-rule:evenodd;clip-rule:evenodd;fill:#FFFFFF;}
	.st1{fill:#FFFFFF;}
</style>
<g>
	<path class="st0" d="M174,586.7c-2.9-6.3-4.7-9.4-5.6-9.4h-0.3c-8.3,3.3-14.7,4.9-19.6,4.9c-12.2,0-22.8-2.8-31.7-8.2   c-2.3-4.7-3.5-10.2-3.5-16.2c0-3.8,0-9.3-0.1-16.9c-0.1-7.4-0.1-13-0.1-16.8c0-19.5,1.4-34.9,4.4-45.9l-0.6-0.1   c-0.7,0.1-5.3,1.5-13.8,4.2l-0.9,1c2.8,10.2,4.1,18.6,4.1,25.5c0,5.8-0.1,14.6-0.3,26.2c-0.3,11.7-0.4,20.4-0.4,26.3   c0,1.8-0.6,4.5-1.6,8.1c-1.2,3.5-1.8,6.2-1.8,8v0.6c8.9,2.5,17.9,4.8,26.8,7.4c12,2.9,20.9,4.5,26.4,4.5   C164.6,589.8,170.8,588.8,174,586.7"/>
	<path class="st0" d="M168.2,564.3c0-1.5-0.3-3.9-0.9-7.2c-0.6-3.4-0.9-7.3-0.9-11.8c0-1.6,0-4.2,0.1-7.5c0.1-3.4,0.2-5.9,0.2-7.4   c0-4.8-1.3-8-3.7-9.9c-2.2-1.7-5.7-2.5-10.4-2.5c-3.2,0-5.4,0.9-6.9,2.8c-0.8,1.1-1.8,3.4-3,6.9c3.4,0,6.3-0.9,8.6-2.6   c2.3-1.6,3.8-2.6,4.8-2.6c3,0,4.5,1.4,4.5,4.2c0,2.5-1.9,4.7-5.7,6.7c-5.9,3.1-9.4,5.2-10.5,6.2c-3.9,3.3-5.7,7.9-5.7,13.5   c0,6.9,2.2,11.9,6.4,15.4c3.9,3.1,9.2,4.7,16.2,4.7c1.3,0,3-0.1,5.1-0.3c-7.3-2.6-11.8-4.6-13.8-6.1c-4-3-6-7.3-6-13.2   c0-3.6,0.6-6.5,1.9-8.7c2.7-4.9,5.6-7.4,8.8-7.4c2.6,0,3.8,2.8,3.8,8.2c0,6.3-0.9,12.4-2.8,18.6L168.2,564.3L168.2,564.3z"/>
	<path class="st0" d="M176.6,565.3c4.3-0.2,7.6-0.4,10-0.3c9.4-1,14.1-5.8,14.1-14.6c0-4.7-1.5-8.2-4.6-10.6   c-3.3-2.1-6.5-4.1-9.8-6.2c-4-3.1-5.9-5.5-5.9-7.1c0-2.2,0.9-4.2,3-5.8c0.5-0.1,1-0.1,1.5-0.1c2.3,0,4,0.5,5.3,1.4   c0.7,0.6,1.5,1.6,2.3,3s1.5,2.3,2.2,2.6c3.1-3.8,4.6-7.5,4.6-11c-3.1,0-5.7-0.1-7.9-0.3c-0.4,0-1.3-0.2-2.5-0.4   c-1.1-0.2-1.9-0.3-2.6-0.3c-3.7,0-6.5,1-8.7,2.9c-2.3,2-3.4,4.9-3.4,8.6c0,3.5,1.8,6.7,5.3,9.5c3.4,2.2,6.6,4.4,9.9,6.4   c3.5,2.8,5.3,5.8,5.3,9.1c0,5.7-2.9,8.5-8.5,8.5c-2.2,0-4.4-0.8-6.6-2.4c-2.4-1.7-4-2.6-4.9-2.6c-0.6,1.8-1.4,3.7-2.1,5.5   c-0.7,2.2-1.1,4.2-1.1,5.8C173.9,566.3,175.7,565.8,176.6,565.3"/>
	<path class="st0" d="M292.9,581.8c0-0.5-1.2-1.1-3.5-1.8c-6-1.6-12-3.2-17.9-4.7c-6.7-2.1-12-5.1-16.4-8.9   c-5.5-5.1-9.6-9.5-11.9-13.4c-2.4-3.9-4.7-9.3-6.8-16.5c-1.3-4.5-1.8-9.7-1.8-15.9c0-7.1,0.8-12.5,2.5-16.5   c3.1-7.1,7.4-13.2,13.1-17.9c2.4-2.1,5.4-3.1,8.9-3.1c3.6,0,7.2,1.9,10.8,5.7c2-0.8,4.1-2,6.2-4c1.1-1,2.9-2.8,5.2-5.4   c-4.3-0.5-11.1-0.8-20.5-0.8c-1.6,0-3,0-3.8,0.1c-8,0.7-14.9,5.2-21,13.3c-7,9.7-10.6,20.5-10.6,32.4c0,10.2,3,20,9,29.2   c5.7,8.8,13.3,16,22.7,21.3c9.5,5.4,19.3,8.2,29.5,8.2h5.5C292.6,582.8,292.9,582.5,292.9,581.8"/>
	<path class="st0" d="M316.7,564.3c0-1.5-0.3-3.9-0.9-7.2c-0.6-3.4-0.9-7.3-0.9-11.8c0-1.6,0-4.2,0.1-7.5c0.1-3.4,0.2-5.9,0.2-7.4   c0-4.8-1.3-8-3.7-9.9c-2.1-1.7-5.6-2.5-10.4-2.5c-3.2,0-5.5,0.9-7,2.8c-0.8,1.1-1.8,3.4-3,6.9c3.4,0,6.3-0.9,8.5-2.6   c2.3-1.6,3.9-2.6,4.9-2.6c3,0,4.4,1.4,4.4,4.2c0,2.5-1.8,4.7-5.6,6.7c-5.9,3.1-9.4,5.2-10.5,6.2c-3.8,3.3-5.8,7.9-5.8,13.5   c0,6.9,2.2,11.9,6.5,15.4c3.9,3.1,9.2,4.7,16.3,4.7c1.3,0,3-0.1,5-0.3c-7.2-2.6-11.8-4.6-13.7-6.1c-4-3-6-7.3-6-13.2   c0-3.6,0.6-6.5,1.9-8.7c2.7-4.9,5.5-7.4,8.8-7.4c2.6,0,3.9,2.8,3.9,8.2c0,6.3-0.9,12.4-2.8,18.6L316.7,564.3L316.7,564.3z"/>
	<path class="st0" d="M325.1,565.3c4.2-0.2,7.6-0.4,10-0.3c9.4-1,14.2-5.8,14.2-14.6c0-4.7-1.5-8.2-4.6-10.6   c-3.3-2.1-6.6-4.1-9.8-6.2c-3.9-3.1-5.9-5.5-5.9-7.1c0-2.2,1-4.2,3-5.8c0.5-0.1,1-0.1,1.5-0.1c2.3,0,3.9,0.5,5.2,1.4   c0.7,0.6,1.5,1.6,2.3,3s1.5,2.3,2.2,2.6c3.1-3.8,4.5-7.5,4.5-11c-3.1,0-5.6-0.1-7.8-0.3c-0.4,0-1.3-0.2-2.6-0.4   c-1.1-0.2-1.9-0.3-2.6-0.3c-3.7,0-6.5,1-8.8,2.9c-2.3,2-3.4,4.9-3.4,8.6c0,3.5,1.8,6.7,5.3,9.5c3.4,2.2,6.6,4.4,9.9,6.4   c3.4,2.8,5.3,5.8,5.3,9.1c0,5.7-2.9,8.5-8.6,8.5c-2.2,0-4.4-0.8-6.6-2.4c-2.4-1.7-4-2.6-4.9-2.6c-0.7,1.8-1.3,3.7-2,5.5   c-0.7,2.2-1.1,4.2-1.1,5.8C322.4,566.3,324.2,565.8,325.1,565.3"/>
	<path class="st0" d="M383.4,564.3c0-1.5-0.3-3.9-0.9-7.2c-0.6-3.4-0.8-7.3-0.8-11.8c0-1.6,0-4.2,0.1-7.5c0.1-3.4,0.2-5.9,0.2-7.4   c0-4.8-1.3-8-3.6-9.9c-2.2-1.7-5.7-2.5-10.4-2.5c-3.2,0-5.5,0.9-7,2.8c-0.8,1.1-1.8,3.4-3,6.9c3.4,0,6.3-0.9,8.6-2.6   c2.3-1.6,3.8-2.6,4.9-2.6c3,0,4.5,1.4,4.5,4.2c0,2.5-1.9,4.7-5.7,6.7c-6,3.1-9.4,5.2-10.5,6.2c-3.9,3.3-5.8,7.9-5.8,13.5   c0,6.9,2.2,11.9,6.5,15.4c3.8,3.1,9.2,4.7,16.2,4.7c1.3,0,3-0.1,5.1-0.3c-7.3-2.6-11.8-4.6-13.8-6.1c-4-3-6-7.3-6-13.2   c0-3.6,0.6-6.5,1.9-8.7c2.7-4.9,5.6-7.4,8.9-7.4c2.6,0,3.8,2.8,3.8,8.2c0,6.3-0.9,12.4-2.8,18.6L383.4,564.3L383.4,564.3z"/>
	<path class="st0" d="M391.8,565.3c4.2-0.2,7.6-0.4,10-0.3c9.4-1,14-5.8,14-14.6c0-4.7-1.5-8.2-4.5-10.6c-3.3-2.1-6.5-4.1-9.8-6.2   c-4-3.1-5.9-5.5-5.9-7.1c0-2.2,1-4.2,3.1-5.8c0.5-0.1,0.9-0.1,1.4-0.1c2.3,0,4,0.5,5.2,1.4c0.7,0.6,1.5,1.6,2.3,3s1.4,2.3,2.2,2.6   c3.1-3.8,4.6-7.5,4.6-11c-3.1,0-5.7-0.1-7.9-0.3c-0.4,0-1.3-0.2-2.5-0.4c-1.1-0.2-1.9-0.3-2.6-0.3c-3.7,0-6.6,1-8.7,2.9   c-2.3,2-3.4,4.9-3.4,8.6c0,3.5,1.7,6.7,5.2,9.5c3.4,2.2,6.7,4.4,10,6.4c3.5,2.8,5.2,5.8,5.2,9.1c0,5.7-2.9,8.5-8.5,8.5   c-2.2,0-4.4-0.8-6.7-2.4c-2.4-1.7-4-2.6-4.8-2.6c-0.7,1.8-1.4,3.7-2.1,5.5c-0.7,2.2-1,4.2-1,5.8   C389.2,566.3,390.9,565.8,391.8,565.3"/>
	<path class="st0" d="M480.3,490.2c0.3-0.6,0.8-2.3,1.4-4.9c0.1-0.4,0.1-0.7,0.1-0.9v-0.7h-42c1.5,4.5,2.8,8.6,3.8,12.1   s1.4,7.9,1.6,13.2c0.1,1.2,0.1,5.6,0.1,13.4c0,18.5-1.3,33.4-4.2,44.8l17.3,5.3l0.2-0.7c-0.1-0.4-1.4-2.7-3.8-6.9   c-2.2-3.8-3.5-7-3.5-9.7v-46.9l0.8-1.5c0.7-0.1,1.6-0.1,2.6-0.1c8.8,0,13.3,1,13.3,3.1c0,1.8-1.9,6.4-5.7,13.8   c-3.9,7.4-5.8,12.4-5.8,15.1c0,4.6,1.6,7,4.8,7c1.5,0,2.2-0.4,2.2-1.3c0-8.1,0.6-13.8,1.8-17.2c1-2.6,2.4-5.7,4.1-9   c1.8-2.9,3.5-5.7,5.2-8.5c2.5-4.3,3.7-7.4,3.7-9.2c-3.1,0.4-6.2,0.7-9.2,1.1c-3.6,0.5-6.6,0.7-9.1,0.7c-5.4,0-8.4-0.5-9.1-1.6   c-0.1-1.4-0.1-3.2-0.1-5.3c0-2.1,0.2-3.6,0.7-4.5c0.9-1.9,4.5-2.9,10.7-2.9c3.3,0,5.8,0.3,7.3,0.8c1.6,0.6,3.8,2,6.5,4.2   C478.1,492.9,479.4,492,480.3,490.2"/>
	<path class="st0" d="M498.2,505.5c0-1.4-0.3-2.7-0.8-4c-0.7-1.7-1.6-2.5-2.8-2.5c-1.5,0-2.6,0.6-3.4,1.6c-0.9,1.2-1.3,2.5-1.3,4   c0,3.6,1.2,5.3,3.7,5.3C496.7,510,498.2,508.6,498.2,505.5 M498.2,564.3c0-2.1-0.4-5.2-1.1-9.3c-0.8-4.1-1.2-7.2-1.2-9.3V534   c0-1.6,0.4-4.1,1.2-7.3c0.7-3.2,1.1-5.7,1.1-7.3H488c2.1,6.3,3.2,14,3.2,23.1c0,5.2-0.2,9.2-0.6,12.2c-0.1,0.6-0.4,2.2-0.9,4.8   c-0.5,2-0.7,3.6-0.7,4.8H498.2z"/>
	<path class="st0" d="M515,564.5c-1.1-9.6-1.7-15.7-1.7-18.2c0-1.4,0.3-13.6,1-36.4c0-0.8,0.1-2.6,0.2-5c0.1-2.1,0.2-3.8,0.2-5.1   c0-0.9,0-1.7-0.1-2.4c-1.5,0.2-4.7-0.1-9.4-0.9c0.5,3.5,1,6.8,1.5,9.6c0.4,2.4,0.6,9.2,0.6,20.6c0,15.4-0.4,25.3-1.2,29.5   c-0.1,0.6-0.5,2-1,4.1c-0.5,1.6-0.8,3-0.8,4L515,564.5z"/>
	<path class="st0" d="M531.9,505.5c0-1.4-0.3-2.7-0.8-4c-0.7-1.7-1.6-2.5-2.8-2.5c-1.5,0-2.6,0.6-3.4,1.6c-0.9,1.2-1.3,2.5-1.3,4   c0,3.6,1.2,5.3,3.7,5.3C530.4,510,531.9,508.6,531.9,505.5 M531.9,564.3c0-2.1-0.4-5.2-1-9.3c-0.8-4.1-1.2-7.2-1.2-9.3V534   c0-1.6,0.4-4.1,1.2-7.3c0.6-3.2,1-5.7,1-7.3h-10.2c2.1,6.3,3.2,14,3.2,23.1c0,5.2-0.2,9.2-0.6,12.2c-0.1,0.6-0.4,2.2-0.9,4.8   c-0.5,2-0.7,3.6-0.7,4.8H531.9z"/>
	<path class="st0" d="M567.5,549.8c0.5-1.7,0.6-4.4,0.6-8.2c0-5.5-1.1-10.5-3.3-15.3c-2.8-5.8-6.5-8.8-11.4-8.8   c-2.1,0-4.1,0.4-6.3,1.2l-0.1-5.8c-3.9,1.3-7.1,2.5-9.5,3.6l-0.1,0.5c0,1,0.2,2,0.7,3.6c0.7,1.7,1.1,2.9,1.1,3.4   c0.9,4.9,1.3,10.7,1.5,17.5v17.4c0,3.2-0.3,7.8-0.8,13.7c-0.6,6.1-0.9,10.6-0.9,13.6h9.2c-0.6-10.5-1.1-18.4-1.5-23.6   c3.3,1.1,5.4,1.7,5.9,1.7C559.8,564.3,564.8,559.5,567.5,549.8 M559.9,543.8c0,10.4-2.2,15.7-6.5,15.7c-4.4,0-6.6-6.3-6.6-18.9   c0-11.8,2-17.6,6.2-17.6C557.6,523,559.9,529.9,559.9,543.8"/>
	<path class="st0" d="M585.1,505.5c0-1.4-0.3-2.7-0.8-4c-0.7-1.7-1.5-2.5-2.8-2.5c-1.4,0-2.6,0.6-3.4,1.6c-0.8,1.2-1.2,2.5-1.2,4   c0,3.6,1.1,5.3,3.7,5.3C583.6,510,585.1,508.6,585.1,505.5 M585.1,564.3c0-2.1-0.4-5.2-1.1-9.3c-0.7-4.1-1.1-7.2-1.1-9.3V534   c0-1.6,0.4-4.1,1.1-7.3c0.7-3.2,1.1-5.7,1.1-7.3h-10.3c2.1,6.3,3.2,14,3.2,23.1c0,5.2-0.2,9.2-0.6,12.2c-0.1,0.6-0.4,2.2-0.9,4.8   c-0.5,2-0.7,3.6-0.7,4.8H585.1z"/>
	<path class="st0" d="M602.4,574.2c4.9-1.1,8.5-3,10.8-5.6c6.8-7.7,10.2-16.3,10.2-25.6c0-9.7-3-16.6-8.9-21c-3-2-5.9-3.2-8.7-3   l-13.1,0.5c0,0.6-0.1,1.2-0.1,1.7c0,2.4,0.2,5.9,0.5,10.6c0.3,4.8,0.5,8.2,0.5,10.6c0,4-0.2,7.7-0.5,11.1c-0.1,0.8-0.4,2.6-0.8,5.4   c-0.3,2.3-0.5,4.1-0.5,5.5h7.9v-35.1c0-4.5,1.4-6.7,4.2-6.7c4.2,0,7.4,2.5,9.2,7.3c1.5,3.6,2.1,7.8,2.1,12.8   c0,7.6-0.8,13.5-2.6,17.6c-2,5-6,9.3-11.9,12.9l-0.2,0.9c0.1,0.3,0.3,0.4,0.7,0.4C601.5,574.4,601.9,574.3,602.4,574.2"/>
	<path class="st0" d="M658.2,564.3c0-1.5-0.3-3.9-0.8-7.2c-0.6-3.4-0.9-7.3-0.9-11.8c0-1.6,0-4.2,0.1-7.5c0.1-3.4,0.2-5.9,0.2-7.4   c0-4.8-1.3-8-3.7-9.9c-2.2-1.7-5.7-2.5-10.5-2.5c-3.1,0-5.4,0.9-6.9,2.8c-0.8,1.1-1.9,3.4-3,6.9c3.3,0,6.2-0.9,8.5-2.6   c2.2-1.6,3.9-2.6,4.8-2.6c3,0,4.5,1.4,4.5,4.2c0,2.5-2,4.7-5.7,6.7c-6,3.1-9.4,5.2-10.5,6.2c-3.9,3.3-5.7,7.9-5.7,13.5   c0,6.9,2.1,11.9,6.5,15.4c3.9,3.1,9.2,4.7,16.3,4.7c1.3,0,3-0.1,5-0.3c-7.3-2.6-11.8-4.6-13.8-6.1c-3.9-3-5.9-7.3-5.9-13.2   c0-3.6,0.6-6.5,1.9-8.7c2.7-4.9,5.5-7.4,8.8-7.4c2.6,0,3.9,2.8,3.9,8.2c0,6.3-0.9,12.4-2.8,18.6L658.2,564.3L658.2,564.3z"/>
	<path class="st0" d="M666.6,565.3c4.3-0.2,7.7-0.4,10-0.3c9.5-1,14.1-5.8,14.1-14.6c0-4.7-1.5-8.2-4.5-10.6   c-3.3-2.1-6.6-4.1-9.8-6.2c-4-3.1-6-5.5-6-7.1c0-2.2,1-4.2,3.1-5.8c0.5-0.1,1-0.1,1.5-0.1c2.3,0,3.9,0.5,5.3,1.4   c0.7,0.6,1.4,1.6,2.2,3s1.5,2.3,2.2,2.6c3.1-3.8,4.6-7.5,4.6-11c-3,0-5.6-0.1-7.9-0.3c-0.4,0-1.2-0.2-2.6-0.4   c-1-0.2-1.8-0.3-2.6-0.3c-3.7,0-6.6,1-8.7,2.9c-2.2,2-3.4,4.9-3.4,8.6c0,3.5,1.8,6.7,5.2,9.5c3.4,2.2,6.7,4.4,10,6.4   c3.5,2.8,5.2,5.8,5.2,9.1c0,5.7-2.9,8.5-8.5,8.5c-2.2,0-4.3-0.8-6.7-2.4c-2.4-1.7-3.9-2.6-4.8-2.6c-0.7,1.8-1.4,3.7-2.1,5.5   c-0.7,2.2-1.1,4.2-1.1,5.8C664,566.3,665.7,565.8,666.6,565.3"/>
	<path class="st0" d="M746.1,564.3c-0.6-3.2-1.1-5.7-1.4-7.2c-1.1-5.8-1.7-12.3-1.7-19.6c0-8.6,0.8-19.3,2.4-32.1   c0.5-3.9,0.7-6.4,0.7-8H744c-3.4,0-5.8,0.9-7.2,2.8c-0.1,1.1-0.1,2.1-0.1,3.2c0,1.4,0.1,3.6,0.4,6.3c0.3,2.9,0.4,5,0.4,6.5   c0-0.8,0,0.9-0.2,4.9c-1.1-0.6-2.2-1.2-3.3-1.9c-1.4-0.7-2.6-1.1-3.7-1.1c-4.6,0-8.6,3-11.9,9c-2.8,5.2-4.2,10.2-4.2,15.4   c0,4.5,0.9,8.3,2.6,11.2c4,7,8.7,10.6,13.9,10.6H746.1z M736.6,531.2v22.4c0,4.4-1.4,6.7-4.3,6.7c-6,0-8.9-6.4-8.9-19   c0-3.5,0.5-6.9,1.5-10.1c1.4-4.5,3.4-6.8,5.9-6.8C734.7,524.2,736.6,526.5,736.6,531.2"/>
	<path class="st0" d="M772.5,521.2c-1.5-2.1-4.3-3.2-8.2-3.2c-4.1,0-7.7,2.6-10.8,7.7c-2.1,3.4-3.2,8.6-3.2,15.9   c0,8.4,1.7,14.6,5.1,18.4c2.6,2.9,4.9,4.3,7.2,4.3c1.7,0,3.8-0.8,6.5-2.5c2.9-1.7,4.4-3.4,4.4-4.9c-5.2-0.1-8.9-0.8-10.8-2   c-2.4-1.5-4.1-4.7-5.5-9.6c-0.4-1.2-0.4-2.6-0.4-4.2c0-0.7,0-1.6,0.1-2.9c0-1.3,0-2.2,0.1-2.8c0.4-0.7,1.2-1.1,2.4-1.1h13   c1.5,0,2.3-1.5,2.3-4.3C774.7,525.9,774.1,523.1,772.5,521.2 M767.2,526.6c0,1.4-0.5,2.2-1.6,2.2h-7.5c0.1-1.7,0.7-3.1,1.9-4.2   c1.2-1.1,2.7-1.6,4.4-1.6C766.3,523,767.2,524.1,767.2,526.6L767.2,526.6z"/>
	<path class="st0" d="M835.3,557.3c0.1,0.3,0.1,0.6,0.1,0.7c0,1.5-0.7,4.4-2,8.6c6.8,5,13.3,9.3,19.7,13.2c4.2,2.7,8.2,4,12.3,4   c2.4,0,4.6-0.4,6.6-1.1c2.8-1,4.2-2.5,4.2-4.3c0-0.4,0-1-0.1-1.8V575c-4.1,0-8,1.1-11.7,3.2c-0.5,0.1-1.2,0.1-1.9,0.1   c-4.7,0-8.6-2.5-11.4-7.5c-2.7-4.7-4.6-8.9-5.6-12.4c-6.3-19.8-9.5-31.2-9.5-34.4c0-1.3,1-2.8,2.9-4.7c3-2.8,4.8-4.7,5.5-5.5   c1.9-2.6,2.9-5.3,2.9-8.4c0-1.6-0.3-3.2-1-4.6c-0.8-1.7-1.9-2.7-3.4-2.7c-2.5,0-3.7,1-3.7,2.9c0,0.7,0.1,1.6,0.4,2.9   c0.2,1.2,0.3,2.2,0.3,2.8c0,2.5-0.4,4.3-1.3,5.4c-1.5,2.2-2.8,3.3-3.9,3.7c-2.4-9-3.8-18.1-3.8-26.9c0-0.8,0.1-1.8,0.4-3.5   c0.3-1.4,0.4-2.6,0.4-3.3l-25.3,0.1c-2.3,0-4.3,0.6-6.1,1.7c-2,1.3-3,3-3,5.1v3.3c2.7,0,5.2-0.9,7.2-2.8c2.1-1.9,3.6-2.9,4.5-2.9   c0.1,0,0.6,0,2,0.1c0.2,3.8,0.3,7.4,0.3,10.8c0,2.9-0.1,5.2-0.4,6.7c-2,14.8-3.6,24.9-4.5,30.1c-2.2,11.3-4.8,21.1-8,29.5   c1.6,0.5,4,0.7,7.1,0.7c2.8,0,4.6-0.2,5.5-0.7c-0.3-5.1-0.3-9.2,0-12.7c0.3-4.5,2.4-9.4,6.3-15c4.3-6.1,8.4-9.1,12.6-9.1   L835.3,557.3z M827.3,517.7c0,1.7-4.5,5.7-13.3,12c1.1-7.7,2-13.4,3-17.3l3.9-19.3h0.4C825.2,505.8,827.3,514,827.3,517.7"/>
	<path class="st0" d="M872.1,563c3.8-2.9,6-5.4,6.5-7.4c-0.8,0-2,0.1-3.7,0.3c-1.6,0.2-2.8,0.3-3.6,0.3c-4.2,0-7.4-2.7-9.7-7.9   c-0.9-2-1.2-5.2-1.2-9.6c0-5.5,0.9-9.6,3-12.6c1.8-2.5,3.2-3.8,4-3.8s1.5,0.2,2.1,0.5l0.2,0.6c-0.1,0.4-0.3,1-0.8,1.7   c-0.3,0.5-0.5,1.3-0.5,2.3c0,2.1,1.1,3.1,3.4,3.1c3.7,0,5.4-1.7,5.4-5c0-2.2-0.9-4.2-2.7-5.8c-1.8-1.7-3.9-2.5-6.2-2.5   c-3.4,0-6.8,1.9-9.8,6c-3.4,4.3-5,10.1-5,17.7c0,7.9,1.8,14.1,5.6,18.2c3,3.4,6,5,8.7,5C869.5,564.3,870.9,563.9,872.1,563"/>
	<path class="st0" d="M911.7,536.9c0-5.5,0.8-11.4,2.6-17.5H904c0,2.1,0.4,5.1,1.1,9.1c0.7,4.1,1,7.1,1,9v6.5   c0,11.2-1.9,16.8-5.9,16.8c-3.3,0-5.9-1.8-7.5-5.4c-1.2-2.7-1.8-6-1.8-9.8c0-6.8,0.7-12.7,2.2-17.4c1.6-5.2,4.4-10.3,8.5-15.3   c-0.1-0.8-1.1-1.8-2.9-3.4c-0.5-0.4-1.8-1.2-3.8-2.9c-1.1,3.8-2.7,8.3-5,13.5c-3.9,8.7-5.7,13.2-5.7,13.2c-1.3,3-1.9,6.4-1.9,10.4   c0,5,1.4,9.5,3.8,13.6c3,4.6,6.8,6.9,11.5,6.9h14.2L911.7,536.9L911.7,536.9z"/>
	<path class="st0" d="M948.4,519.8v-2h-25v-0.9c-1.2,1.6-1.9,3.6-1.9,6c0,1.4,0.7,3.2,2,5.3c4.2-3,7.9-4.5,11.2-4.5   c0.7,0,1.6,0,2.4,0.1c-0.9,3.9-1.9,7.2-3.1,9.6c-0.4,0.8-3.3,6.3-8.8,16.2c-4.9,8.9-7.4,13.7-7.4,14.4v0.9   c11.7,0.5,19.8,0.7,24,0.7c1.3,0,2.6,0,4-0.1c0.5-1.9,0.8-3.8,0.8-5.8c0-1.9-0.5-3.8-1.6-5.5c-2.6,3.5-4.8,5.2-6.9,5.2h-8.5v-2.8   L948.4,519.8z"/>
	<path class="st0" d="M982.4,564.3c0-1.5-0.3-3.9-0.9-7.2c-0.6-3.4-0.9-7.3-0.9-11.8c0-1.6,0-4.2,0.1-7.5c0.1-3.4,0.2-5.9,0.2-7.4   c0-4.8-1.2-8-3.7-9.9c-2.2-1.7-5.7-2.5-10.4-2.5c-3.2,0-5.4,0.9-7,2.8c-0.8,1.1-1.8,3.4-3,6.9c3.4,0,6.2-0.9,8.5-2.6   c2.3-1.6,3.9-2.6,4.9-2.6c3,0,4.4,1.4,4.4,4.2c0,2.5-1.8,4.7-5.6,6.7c-6,3.1-9.4,5.2-10.5,6.2c-3.9,3.3-5.8,7.9-5.8,13.5   c0,6.9,2.2,11.9,6.4,15.4c3.9,3.1,9.2,4.7,16.3,4.7c1.3,0,3-0.1,5-0.3c-7.2-2.6-11.8-4.6-13.7-6.1c-4-3-5.9-7.3-5.9-13.2   c0-3.6,0.6-6.5,1.9-8.7c2.7-4.9,5.5-7.4,8.8-7.4c2.6,0,3.9,2.8,3.9,8.2c0,6.3-1,12.4-2.8,18.6L982.4,564.3L982.4,564.3z"/>
	<path class="st0" d="M1010.5,526.2c0.7-1.4,1.1-2.8,1.1-4.1c0-2.7-1-4-2.8-4h-11.3c-3,0-6.2,0.5-9.7,1.4   c1.6,10.5,2.4,19.3,2.4,26.2c0,4.5-0.2,8-0.6,10.9c-0.5,3.5-0.8,6.1-0.8,7.7h9c-1.3-15.1-2.1-23.6-2.1-25.6v-10.9   c0-2.2,0.6-3.8,1.7-4.6c0.6-0.1,1.4-0.1,2.1-0.1c1.2,0,4,1.8,8,5.7C1008.9,528.8,1009.7,527.9,1010.5,526.2"/>
	<path class="st0" d="M694.2,621.2l0.1-0.2c0.1-0.5,0.2-1,0.2-1.7s-0.1-1.5-0.2-2.2c-0.2-0.7-0.4-1.5-0.6-2.3   c-1.3-1.6-3-2.9-5.1-3.7c-2.2-0.9-5-1.4-8.2-1.4c-0.5,0-1.1,0-1.6,0c1.2,1.7,2.3,3.4,3,5.1c1,2.1,1.5,4.3,1.7,6.4L694.2,621.2   L694.2,621.2z M676.5,627.8l-12.3,0.4c-2.7,0.2-5.2,0.5-7.4,0.9c-2.1,0.5-4,1.1-5.6,2c-1.2,0.6-2.2,1.3-2.8,2.1   c-0.4,0.6-0.6,1.3-0.6,2.1v0.2c0,0.8,0.1,1.5,0.4,2.1l0,0c0.3,0.6,0.8,1.1,1.4,1.6l0,0c1.2,0.8,2.5,1.4,3.9,1.8   c1.5,0.4,3.2,0.6,5.1,0.6c1,0,1.9-0.1,2.9-0.2c0.9-0.1,1.9-0.3,2.7-0.6c1.6-0.5,3.1-1.3,4.5-2.2c1.4-1,2.8-2.2,3.9-3.7   c1.3-1.4,2.2-3,2.9-4.6C675.9,629.5,676.2,628.7,676.5,627.8 M574.5,603.9c-0.9-1-2-1.7-3.2-2.2c-1.4-0.6-3.1-0.9-4.9-0.9   c-1.7,0-3.3,0.3-4.8,0.7c-1.4,0.4-2.8,1.1-4,2c-3.6,2.5-6.3,5.2-8.1,8.1c-1.7,2.7-2.4,5.5-2.5,8.5c5.2-0.5,9.7-1.4,13.8-2.8   c4.5-1.5,8.3-3.5,11.3-6l0,0c0.9-0.7,1.6-1.5,2-2.4s0.6-2,0.6-3.2c0-0.4,0-0.8-0.1-1.1C574.6,604.4,574.6,604.1,574.5,603.9    M540.3,620.4L540.3,620.4c0.1-0.7,0.2-1.3,0.2-1.9c0-1.5-0.3-3.1-0.7-4.6s-1.1-3-2.1-4.4c-2.5-3-5.1-5.3-7.6-6.7s-5-2.2-7.6-2.2   c-1,0-2.1,0.1-3.1,0.3c-0.9,0.3-1.9,0.6-2.8,1.1l0,0c-0.9,0.5-1.6,1.1-2.3,1.9c-0.6,0.6-1.1,1.4-1.4,2.3l-0.1,0.2   c-0.2,0.2-0.2,0.5-0.3,0.7s-0.1,0.5-0.1,0.8c0,0.4,0.1,1,0.3,1.7c0.2,0.6,0.5,1.3,0.8,2c1.7,1.4,3.6,2.7,5.7,3.7   c2.2,1.2,4.6,2.1,7.2,2.9c2,0.5,4.4,1,6.9,1.5C535.4,619.9,537.8,620.2,540.3,620.4 M439.6,632.8c-1.4-1.2-3.2-2.2-5.2-2.9   c-2.3-0.9-5.2-1.4-8.4-1.6l0,0c-3-0.1-6-0.2-8.8-0.3l-6.6-0.2c0.2,1.4,0.5,2.8,1,4c0.7,1.8,1.7,3.5,3,5.1c2,1.6,4.1,2.9,6.4,3.7   c2.1,0.8,4.5,1.2,7,1.2c1.2,0,2.5-0.1,3.6-0.4c1.1-0.3,2.2-0.7,3.2-1.3c1.7-1,3.1-2.1,3.9-3.3c0.7-1,1.1-2.1,1.1-3.3   C439.7,633.3,439.6,633.1,439.6,632.8L439.6,632.8z M407,609.6c-1.6,0.1-3.1,0.3-4.4,0.6c-1.7,0.5-3.3,1.1-4.7,2.1h-0.1   c-1.6,1-2.8,2.3-3.6,3.6c-0.7,1.4-1.1,3-1.1,4.8v0.5h10.7c0.1-2.8,0.5-5.4,1.3-7.7C405.5,612.1,406.2,610.8,407,609.6    M1025.5,627.1l-326.8,0.3c-0.8,1.6-1.9,3.1-3.4,4.3c-1.7,1.5-4,2.7-6.7,3.7l-0.8,0.3l-0.8-0.5c-0.4-0.2-0.7-0.5-0.9-0.8   s-0.5-0.6-0.6-1l-0.1-0.1l-3.1-1.8l3.3-1.7c1-0.5,1.9-1,2.6-1.3c0.6-0.4,1.1-0.7,1.4-0.8l0.2-0.1H688h-4.8   c-0.3,1.8-0.7,3.5-1.3,5.2c-0.8,2.2-2,4.3-3.5,6.3c-1.6,2.1-3.3,3.9-5.2,5.2c-1.9,1.4-4.1,2.5-6.5,3.2h-0.1   c-1.1,0.2-2.2,0.4-3.2,0.5c-1.1,0.2-2.2,0.2-3.2,0.2c-3.4,0-6.4-0.6-8.9-1.8c-2.6-1.2-4.7-3.1-6.3-5.5c-1-1.4-1.7-2.7-2.2-3.9   c-0.5-1.3-0.8-2.6-0.8-3.7c0-1,0.1-1.9,0.5-2.9l0.3-0.6c1.4-1.7,3.2-3.2,5.1-4.3c2-1.1,4.1-2.1,6.6-2.7l0,0   c1.7-0.4,3.6-0.7,5.8-0.9s4.7-0.3,7.5-0.3h9.8c0.1-0.3,0.1-0.6,0.1-0.9c0-2.4-0.4-4.5-1.2-6.3c-0.7-1.6-1.7-2.9-3.1-4.1   c-4.6,0.6-9.4,1.7-14.6,3.2c-5.5,1.7-11.4,3.8-17.5,6.5l-44.1,19.4c-4.4,1.9-8.7,3.4-12.8,4.3l0,0c-4.2,1-8.3,1.5-12.3,1.5   c-4.3,0-8.3-0.6-11.8-1.8c-3.6-1.3-6.7-3.2-9.4-5.7c-1.6-1.5-3.1-3.2-4.5-5.1c-0.7-0.9-1.3-2-2.1-3.1c-1.3,2.6-3,4.9-5,7   c-2,2-4.3,3.8-7.1,5.1l0,0c-2.5,1.3-5.1,2.3-8,2.9c-2.8,0.6-5.6,0.8-8.7,0.7c-3.8-0.1-7.9-0.8-12.2-1.9c-4.4-1.1-9-2.8-13.9-4.9   L445.3,619c-4.3-1.8-9-3.6-14.1-5c-4.9-1.4-10-2.7-15.6-3.7c-1.6,1.2-3,2.9-3.9,4.8c-0.9,1.8-1.5,3.9-1.8,6.3l13.6,0.6h0.1   c3,0.2,5.8,0.7,8.3,1.3c2.6,0.6,4.8,1.4,6.9,2.4l0.5,0.4c1.1,1,2,1.9,2.7,2.6c0.6,0.6,1,1.1,1.3,1.3c0.8,0.9,1.3,1.9,1.7,2.9   c0.4,1,0.6,2,0.6,3.1c0,0.5,0,1-0.1,1.6c-0.1,0.5-0.3,1.1-0.5,1.6l-0.1,0.2c-1.6,2.9-3.8,5.1-6.5,6.7c-2.7,1.4-5.9,2.1-9.5,2.1   c-2.3,0-4.6-0.3-6.8-1.1c-2.2-0.7-4.2-1.8-6.3-3.2l0,0c-1.7-1.2-3.4-2.8-4.8-4.5c-1.5-1.7-2.8-3.7-4-5.8l0,0   c-0.2-0.4-0.4-1-0.7-1.6c-0.2-0.7-0.4-1.4-0.6-2.3c-0.2-0.8-0.4-1.4-0.6-1.9l-0.1-0.2h-0.7c-0.8,0-1.7,0-2.7,0l-2.8-0.1h-2.1h-0.4   v0.1l0.8,0.6c1.4,0.4,2.7,0.9,3.6,1.6c1.1,0.8,1.9,1.9,2.3,3.1l1.1,3.6l-3.7-1.1c-2.2-0.8-4.3-1.9-6.2-3.4c-1.6-1.2-3-2.8-4.3-4.6   H87.7h-1.2l-0.6-0.9l-1.3-2.2l-1.8-3h3.5l300.9,0.3l-0.1-0.2c-0.1-0.3-0.1-0.6-0.2-0.8c-0.1-0.3-0.1-0.6-0.2-0.9c0-0.4,0-0.8,0-1.1   c0-2,0.6-4.1,1.8-6.1c1.1-1.9,2.8-3.8,4.9-5.6l0.3-0.2c2.1-1.1,4.2-1.9,6.4-2.6c2.2-0.5,4.4-0.8,6.7-0.8c1,0,2,0,3,0.1   c0.8,0.1,1.6,0.3,2.4,0.4c0.2,0,0.5-0.1,0.7-0.2c0.5-0.2,1-0.4,1.6-0.8c0.9-0.5,1.6-0.9,2.3-1.3c0.5-0.3,0.9-0.5,1.3-0.7l0,0   c2.1-0.9,4.3-1.6,6.7-2c2.4-0.5,4.9-0.7,7.5-0.7c4.1,0,8.3,0.5,12.6,1.6c4.2,1.1,8.5,2.7,12.8,4.7l34,16.4c2.8,0.9,5,1.8,6.9,2.4   c1.8,0.6,3.3,1.1,4.5,1.4c2.3,0.6,4.4,1.1,6.4,1.4c1.9,0.3,3.7,0.5,5.5,0.5c2.1,0,4.1-0.2,5.9-0.7c1.6-0.3,3.2-1,4.7-1.8   c-1.9-0.6-3.7-1.2-5.1-1.8c-3.7-1.7-6.8-3.8-9.2-6.5c-2.4-2.7-4.1-5.8-5-9.4v-0.5c-0.1-1.7,0.4-3.4,1.5-5c1-1.5,2.4-2.8,4.2-4.2   l0,0c1.1-0.8,2.4-1.4,3.8-1.8c1.4-0.4,2.9-0.6,4.5-0.6c2.2,0,4.3,0.3,6.3,0.9c2,0.6,3.9,1.5,5.7,2.8c2.1,1.4,4,3.2,5.8,5.1   c1.7,1.9,3.4,4.2,4.9,6.6c0.4-0.8,0.9-1.6,1.4-2.3c1.2-1.9,2.6-3.7,4.2-5.3c1.8-2,3.7-3.5,5.6-4.7c1.9-1.2,4-2.1,6.1-2.6   c0.7-0.1,1.4-0.3,2.2-0.3c0.7-0.1,1.4-0.2,2.1-0.2c2.9,0,5.5,0.7,7.9,1.9c2.2,1.2,4.3,3.1,5.9,5.5l0,0c0.6,1,1.2,2,1.5,3.1   s0.5,2.2,0.5,3.3c0,0.9-0.1,1.7-0.3,2.6l0,0c-0.2,0.9-0.5,1.7-0.9,2.4l-0.2,0.3c-1.8,2.4-4.1,4.4-6.8,6.1c-2.6,1.7-5.5,3-8.9,4.1   l0,0c-0.6,0.2-1.5,0.4-2.5,0.7c1.4,0.6,3,1.1,4.5,1.5c2.1,0.4,4.2,0.7,6.5,0.7c2.4,0,4.8-0.3,7.3-0.8l0,0c2.7-0.5,5.3-1.3,8.2-2.4   c1.6-0.5,3.6-1.4,6.1-2.5c2.4-1.1,5.4-2.4,8.7-4l27.3-13.2l0,0c3.9-1.9,7.9-3.3,11.9-4.2c4-1,8.1-1.4,12.2-1.4c4,0,7.7,0.5,11,1.6   c3.1,0.9,5.7,2.3,8.2,4.1c0.8-0.1,1.6-0.2,2.4-0.2c1-0.1,2.1-0.1,3.1-0.1c9.2,0,15.7,3.1,19.4,9.4c1.7,2.4,2.6,5,2.6,7.8v0.7   l12.5,0.3l311.4-0.3h1.7l0.2,1.4l0.1,0.1v0.1c0.3,0.3,0.5,0.5,0.7,0.8h0.1c0.2,0.4,0.4,0.7,0.4,1.1l0.5,2.3h-2.3V627.1z    M416.4,606.3l0.5,0.1l-0.1-0.3l-0.2,0.1L416.4,606.3z M529,624.8L529,624.8l0.3,0.3l0,0c0.3,0.3,0.6,0.6,0.8,0.9l0,0   c0.3,0.4,0.5,0.8,0.6,1.3l0.2,1.4l-1.3,0.6c-2.1,1-4.3,1.7-6.4,2.2c-2.3,0.5-4.6,0.7-6.9,0.7c-2.6,0-5.5-0.3-8.6-0.9   c-3-0.6-6.2-1.5-9.6-2.7l0,0l-8.3-3.4l-8.1-3.5c-1.5-0.6-3.5-1.5-6.1-2.8c-2.5-1.2-5.5-2.8-9.3-4.7c-3.3-1.7-6.3-3.2-8.9-4.4   s-4.9-2.2-6.8-2.9l0,0c-2.8-1.1-5.6-1.8-8.2-2.4c-2.6-0.5-5.1-0.8-7.5-0.8c-3.9,0-7.6,0.6-11.2,2c2.6,0.7,5.3,1.5,8.1,2.4   c4.7,1.5,9.6,3.3,14.7,5.3h0.1c2.5,1,6,2.5,10.7,4.5c4.2,1.8,9.6,4.1,16.2,7.1l0,0c5.8,2.6,10.9,4.8,15.2,6.7   c4.5,1.9,8.3,3.5,11.6,4.7l0,0c2.3,0.8,4.5,1.4,6.8,1.8c2.4,0.4,4.7,0.6,7.2,0.6c4.2,0,7.9-0.5,11.2-1.6s6.1-2.7,8.5-4.9   c1.3-1.1,2.5-2.5,3.4-3.7c0.4-0.6,0.8-1.3,1.1-1.9C534.8,626.1,531.8,625.5,529,624.8 M558.4,624.8l-1.3,0.3   c-2.4,0.4-5.4,1-9.1,1.6c0.4,1,1,2,1.6,3c1.1,1.6,2.6,3.1,4.5,4.4c1.7,1.1,3.4,2.1,5.3,2.9c1.9,0.8,3.9,1.3,6,1.7l0,0   c0.8,0.1,1.6,0.2,2.5,0.3c0.8,0.1,1.7,0.1,2.6,0.1c3.4,0,7.2-0.5,11.4-1.6l11.1-3.4l46.2-20.4c4.8-2.1,9.7-3.9,14.8-5.5   c3.4-1.1,6.9-2,10.4-2.8c-0.7-0.3-1.5-0.5-2.2-0.6c-2.5-0.6-5.1-0.9-7.7-0.9c-2.2,0-4.3,0.2-6.7,0.6c-2.4,0.4-4.8,1-7.3,1.8   c-1.9,0.6-4,1.4-6.3,2.3c-2.3,0.9-4.8,2.1-7.4,3.3l-6.6,3.3l0,0l-6.6,3.3h-0.1c-5.2,2.5-9.7,4.6-13.2,6.2c-3.5,1.6-5.9,2.6-7.1,3.1   c-4,1.6-7.9,2.7-11.7,3.5s-7.5,1.2-11,1.3l-0.5-0.1l-3.3-0.7l-3.3-0.7h-0.2c-1.4-0.4-2.6-1-3.7-1.8c-1.1-0.8-2.1-1.8-2.7-2.8   L558.4,624.8z"/>
</g>
<g>
	<path class="st1" d="M404.6,685.9c0.8,0.5,1.5,1.3,2,2.1c0.5,0.9,0.8,1.9,0.8,3.2s-0.3,2.4-0.8,3.3c-0.6,0.9-1.3,1.7-2.2,2.3   c-0.9,0.6-1.8,1-2.9,1.4c-1.1,0.3-2.2,0.5-3.4,0.5h-13v-1.4c0.3,0,0.8-0.1,1.4-0.2c0.6-0.1,1-0.2,1.3-0.3c0.4-0.2,0.7-0.4,0.9-0.7   c0.2-0.3,0.3-0.7,0.3-1.2v-19.8c0-0.4-0.1-0.8-0.2-1.2c-0.1-0.3-0.4-0.6-0.9-0.8c-0.4-0.2-0.8-0.3-1.3-0.4   c-0.5-0.1-0.9-0.2-1.2-0.2v-1.4h12.7c1,0,1.9,0.1,2.8,0.3s1.8,0.5,2.6,1c0.8,0.5,1.4,1.1,1.9,1.8c0.5,0.8,0.7,1.7,0.7,2.8   c0,1-0.2,1.8-0.5,2.6s-0.8,1.4-1.5,1.9c-0.6,0.5-1.3,1-2,1.3c-0.8,0.4-1.6,0.6-2.5,0.8v0.2c0.8,0.1,1.7,0.3,2.6,0.6   C403,684.9,403.9,685.4,404.6,685.9z M399.9,681.7c0.5-0.6,0.8-1.2,1-1.8c0.2-0.7,0.3-1.4,0.3-2.3c0-1.5-0.4-2.7-1.2-3.6   c-0.8-0.9-2.1-1.3-3.9-1.3c-0.4,0-0.9,0-1.6,0c-0.6,0-1.1,0-1.6,0v10.6h2.5c1.1,0,2-0.1,2.7-0.4   C398.9,682.7,399.5,682.3,399.9,681.7z M402.6,690.5c0-1.6-0.5-3-1.6-4s-2.7-1.6-4.7-1.6c-0.8,0-1.5,0-2.1,0s-1,0-1.3,0v9.7   c0,0.8,0.3,1.4,1,1.8c0.7,0.4,1.6,0.6,2.7,0.6c1.9,0,3.4-0.6,4.4-1.7C402.1,694.4,402.6,692.7,402.6,690.5z"/>
	<path class="st1" d="M436.7,698.7h-11.4v-1.4c1-0.1,1.8-0.2,2.5-0.4s1-0.4,1-0.7c0-0.1,0-0.3,0-0.4c0-0.2-0.1-0.3-0.1-0.4l-2.3-6.2   h-9.6c-0.4,0.9-0.7,1.7-0.9,2.4c-0.2,0.7-0.4,1.3-0.6,1.9c-0.2,0.6-0.3,1-0.3,1.4c-0.1,0.3-0.1,0.6-0.1,0.9c0,0.5,0.4,0.9,1.2,1.2   c0.8,0.3,1.7,0.5,2.8,0.5v1.4h-10.3v-1.4c0.3,0,0.8-0.1,1.3-0.2c0.5-0.1,0.9-0.3,1.2-0.5c0.5-0.3,0.9-0.7,1.2-1.1   c0.3-0.4,0.6-0.9,0.8-1.6c1.4-3.4,2.9-7.3,4.6-11.6s3.1-8.1,4.5-11.5h1.5l9.2,23.7c0.2,0.5,0.4,0.9,0.7,1.2s0.6,0.6,1,0.9   c0.3,0.2,0.7,0.3,1.2,0.5c0.5,0.1,0.9,0.2,1.2,0.2v1.2H436.7z M425.6,687.5l-4.2-10.7l-4.1,10.7H425.6z"/>
	<path class="st1" d="M464.3,687.7c-0.3,0-0.7,0.1-1.2,0.2c-0.5,0.1-0.9,0.2-1.3,0.4s-0.7,0.5-0.8,0.8c-0.2,0.4-0.2,0.8-0.2,1.2v2.1   c0,1.5,0,2.6,0,3.1s0,1,0.1,1.3c-1.7,0.8-3.4,1.4-5.1,1.8c-1.7,0.4-3.4,0.6-5,0.6c-1.8,0-3.4-0.3-5.1-1c-1.6-0.7-3-1.6-4.3-2.8   c-1.2-1.2-2.2-2.7-2.9-4.5c-0.7-1.8-1.1-3.7-1.1-5.9c0-2.1,0.3-4,1-5.8s1.7-3.3,2.9-4.7c1.2-1.3,2.7-2.3,4.4-3   c1.7-0.7,3.5-1.1,5.5-1.1c1.5,0,2.9,0.2,4,0.6s2.2,0.8,3,1.4l0.8-1.3h1.5l0.2,9.6h-1.6c-0.3-1.1-0.6-2.1-1-3.1s-0.9-1.9-1.6-2.8   s-1.4-1.5-2.3-1.9c-0.9-0.5-2-0.7-3.3-0.7c-1.4,0-2.6,0.3-3.7,0.8c-1.1,0.6-2,1.4-2.8,2.5s-1.4,2.4-1.8,4s-0.6,3.4-0.6,5.4   c0,1.7,0.2,3.4,0.6,4.9s1,2.9,1.8,4s1.8,2.1,3,2.7c1.2,0.7,2.6,1,4.1,1c1.1,0,2.2-0.2,3.1-0.5s1.6-0.7,2-1.1c0.1-0.7,0.2-1.3,0.2-2   s0-1.3,0-1.7v-1.5c0-0.5-0.1-1-0.2-1.4s-0.5-0.7-0.9-0.9s-1-0.3-1.7-0.4c-0.7-0.1-1.3-0.2-1.7-0.2v-1.4h12V687.7z"/>
	<path class="st1" d="M492.1,698.7h-11.4v-1.4c1-0.1,1.8-0.2,2.5-0.4s1-0.4,1-0.7c0-0.1,0-0.3,0-0.4c0-0.2-0.1-0.3-0.1-0.4l-2.3-6.2   h-9.6c-0.4,0.9-0.7,1.7-0.9,2.4c-0.2,0.7-0.4,1.3-0.6,1.9c-0.2,0.6-0.3,1-0.3,1.4c-0.1,0.3-0.1,0.6-0.1,0.9c0,0.5,0.4,0.9,1.2,1.2   c0.8,0.3,1.7,0.5,2.8,0.5v1.4H464v-1.4c0.3,0,0.8-0.1,1.3-0.2c0.5-0.1,0.9-0.3,1.2-0.5c0.5-0.3,0.9-0.7,1.2-1.1   c0.3-0.4,0.6-0.9,0.8-1.6c1.4-3.4,2.9-7.3,4.6-11.6s3.1-8.1,4.5-11.5h1.5l9.2,23.7c0.2,0.5,0.4,0.9,0.7,1.2s0.6,0.6,1,0.9   c0.3,0.2,0.7,0.3,1.2,0.5c0.5,0.1,0.9,0.2,1.2,0.2v1.2H492.1z M481,687.5l-4.2-10.7l-4.1,10.7H481z"/>
	<path class="st1" d="M505.2,699.4c-1.6,0-3.2-0.3-4.7-1c-1.5-0.6-2.8-1.6-4-2.8c-1.1-1.2-2.1-2.7-2.7-4.4c-0.7-1.7-1-3.7-1-5.9   s0.3-4.2,1-6s1.6-3.3,2.8-4.6c1.2-1.3,2.6-2.3,4.2-3s3.3-1,5.1-1c1.4,0,2.6,0.2,3.7,0.5s2.1,0.8,3.1,1.4l0.8-1.3h1.5l0.2,9.8h-1.6   c-0.2-1-0.5-2-0.9-3.1s-0.9-2.1-1.5-2.8c-0.6-0.9-1.4-1.6-2.2-2.1c-0.9-0.5-1.8-0.7-2.9-0.7c-1.3,0-2.4,0.3-3.5,0.8   c-1.1,0.6-2,1.4-2.8,2.5c-0.7,1-1.3,2.4-1.8,4c-0.4,1.6-0.6,3.4-0.6,5.4c0,1.8,0.2,3.4,0.7,4.8c0.4,1.5,1.1,2.8,1.9,3.9   c0.8,1.1,1.8,2,2.9,2.6s2.4,0.9,3.8,0.9c1,0,2-0.2,2.9-0.5s1.6-0.8,2.3-1.3c0.6-0.6,1.2-1.2,1.7-1.9s0.9-1.5,1.2-2.4l1.5,0.7   c-1.1,2.7-2.6,4.7-4.4,5.8C509.9,698.8,507.7,699.4,505.2,699.4z"/>
	<path class="st1" d="M524.9,698c0,0.9-0.2,1.8-0.6,2.6c-0.4,0.8-0.9,1.5-1.4,2.1c-0.6,0.6-1.1,1.2-1.8,1.6   c-0.6,0.5-1.2,0.9-1.7,1.1l-0.9-1.3c0.6-0.4,1.2-0.8,1.7-1.2s0.9-0.8,1.2-1.2c0.4-0.5,0.7-0.9,1-1.5c0.3-0.5,0.4-1.1,0.5-1.8h-1   c-0.9,0-1.5-0.2-2-0.7s-0.7-1.1-0.7-1.8c0-0.5,0.2-1.1,0.7-1.6c0.4-0.5,1-0.8,1.8-0.8c1.1,0,1.9,0.4,2.5,1.1   C524.7,695.7,524.9,696.7,524.9,698z"/>
	<path class="st1" d="M558.3,685.9c0.8,0.5,1.5,1.3,2,2.1c0.5,0.9,0.8,1.9,0.8,3.2s-0.3,2.4-0.8,3.3c-0.6,0.9-1.3,1.7-2.2,2.3   s-1.8,1-2.9,1.4c-1.1,0.3-2.2,0.5-3.4,0.5h-13v-1.4c0.3,0,0.8-0.1,1.4-0.2c0.6-0.1,1-0.2,1.3-0.3c0.4-0.2,0.7-0.4,0.9-0.7   s0.3-0.7,0.3-1.2v-19.8c0-0.4-0.1-0.8-0.2-1.2c-0.1-0.3-0.4-0.6-0.9-0.8c-0.4-0.2-0.8-0.3-1.3-0.4c-0.5-0.1-0.9-0.2-1.2-0.2v-1.4   h12.7c1,0,1.9,0.1,2.8,0.3c0.9,0.2,1.8,0.5,2.6,1s1.4,1.1,1.9,1.8c0.5,0.8,0.7,1.7,0.7,2.8c0,1-0.2,1.8-0.5,2.6s-0.8,1.4-1.5,1.9   c-0.6,0.5-1.3,1-2,1.3c-0.8,0.4-1.6,0.6-2.5,0.8v0.2c0.8,0.1,1.7,0.3,2.6,0.6C556.6,684.9,557.5,685.4,558.3,685.9z M553.6,681.7   c0.5-0.6,0.8-1.2,1-1.8c0.2-0.7,0.3-1.4,0.3-2.3c0-1.5-0.4-2.7-1.2-3.6s-2.1-1.3-3.9-1.3c-0.4,0-0.9,0-1.6,0c-0.6,0-1.1,0-1.6,0   v10.6h2.5c1.1,0,2-0.1,2.7-0.4C552.5,682.7,553.1,682.3,553.6,681.7z M556.3,690.5c0-1.6-0.5-3-1.6-4s-2.7-1.6-4.7-1.6   c-0.8,0-1.5,0-2.1,0s-1,0-1.3,0v9.7c0,0.8,0.3,1.4,1,1.8s1.6,0.6,2.7,0.6c1.9,0,3.4-0.6,4.4-1.7S556.3,692.7,556.3,690.5z"/>
	<path class="st1" d="M590.3,698.7h-11.4v-1.4c1-0.1,1.8-0.2,2.5-0.4s1-0.4,1-0.7c0-0.1,0-0.3,0-0.4c0-0.2-0.1-0.3-0.1-0.4l-2.3-6.2   h-9.6c-0.4,0.9-0.7,1.7-0.9,2.4s-0.4,1.3-0.6,1.9c-0.2,0.6-0.3,1-0.3,1.4c-0.1,0.3-0.1,0.6-0.1,0.9c0,0.5,0.4,0.9,1.2,1.2   s1.7,0.5,2.8,0.5v1.4H562v-1.4c0.3,0,0.8-0.1,1.3-0.2c0.5-0.1,0.9-0.3,1.2-0.5c0.5-0.3,0.9-0.7,1.2-1.1c0.3-0.4,0.6-0.9,0.8-1.6   c1.4-3.4,2.9-7.3,4.6-11.6c1.7-4.3,3.2-8.1,4.5-11.5h1.5l9.2,23.7c0.2,0.5,0.4,0.9,0.7,1.2c0.2,0.3,0.6,0.6,1,0.9   c0.3,0.2,0.7,0.3,1.2,0.5c0.5,0.1,0.9,0.2,1.2,0.2v1.2H590.3z M579.3,687.5l-4.2-10.7l-4.1,10.7H579.3z"/>
	<path class="st1" d="M613.7,678.7h-1.3c-0.1-0.5-0.3-1-0.6-1.7c-0.3-0.6-0.6-1.2-1-1.8s-0.8-1.1-1.3-1.6c-0.5-0.4-0.9-0.7-1.3-0.8   c-0.4-0.1-0.9-0.1-1.5-0.1s-1.2,0-1.7,0h-1.1v22c0,0.4,0.1,0.8,0.3,1.2s0.5,0.6,0.9,0.8c0.2,0.1,0.7,0.2,1.5,0.4   c0.7,0.2,1.3,0.2,1.7,0.3v1.4h-13v-1.4c0.4,0,0.9-0.1,1.7-0.2c0.7-0.1,1.3-0.2,1.5-0.3c0.4-0.2,0.7-0.4,0.9-0.7s0.3-0.7,0.3-1.3   v-22.2h-1.1c-0.4,0-0.9,0-1.5,0s-1.2,0.1-1.7,0.1c-0.4,0.1-0.9,0.3-1.3,0.8c-0.5,0.5-0.9,1-1.3,1.6c-0.4,0.6-0.7,1.2-1,1.8   c-0.3,0.7-0.5,1.2-0.6,1.6h-1.4v-7.5h24v7.6H613.7z"/>
	<path class="st1" d="M641.5,698.7h-11.4v-1.4c1-0.1,1.8-0.2,2.5-0.4s1-0.4,1-0.7c0-0.1,0-0.3,0-0.4c0-0.2-0.1-0.3-0.1-0.4l-2.3-6.2   h-9.6c-0.4,0.9-0.7,1.7-0.9,2.4s-0.4,1.3-0.6,1.9c-0.2,0.6-0.3,1-0.3,1.4c-0.1,0.3-0.1,0.6-0.1,0.9c0,0.5,0.4,0.9,1.2,1.2   s1.7,0.5,2.8,0.5v1.4h-10.4v-1.4c0.3,0,0.8-0.1,1.3-0.2c0.5-0.1,0.9-0.3,1.2-0.5c0.5-0.3,0.9-0.7,1.2-1.1s0.6-0.9,0.8-1.6   c1.4-3.4,2.9-7.3,4.6-11.6c1.7-4.3,3.2-8.1,4.5-11.5h1.5l9.2,23.7c0.2,0.5,0.4,0.9,0.7,1.2c0.2,0.3,0.6,0.6,1,0.9   c0.3,0.2,0.7,0.3,1.2,0.5c0.5,0.1,0.9,0.2,1.2,0.2v1.2H641.5z M630.4,687.5l-4.2-10.7l-4.1,10.7H630.4z"/>
	<path class="st1" d="M668.1,698.7h-11.4v-1.4c1-0.1,1.8-0.2,2.5-0.4s1-0.4,1-0.7c0-0.1,0-0.3,0-0.4c0-0.2-0.1-0.3-0.1-0.4l-2.3-6.2   h-9.6c-0.4,0.9-0.7,1.7-0.9,2.4s-0.4,1.3-0.6,1.9c-0.2,0.6-0.3,1-0.3,1.4c-0.1,0.3-0.1,0.6-0.1,0.9c0,0.5,0.4,0.9,1.2,1.2   s1.7,0.5,2.8,0.5v1.4h-10.4v-1.4c0.3,0,0.8-0.1,1.3-0.2c0.5-0.1,0.9-0.3,1.2-0.5c0.5-0.3,0.9-0.7,1.2-1.1c0.3-0.4,0.6-0.9,0.8-1.6   c1.4-3.4,2.9-7.3,4.6-11.6c1.7-4.3,3.2-8.1,4.5-11.5h1.5l9.2,23.7c0.2,0.5,0.4,0.9,0.7,1.2c0.2,0.3,0.6,0.6,1,0.9   c0.3,0.2,0.7,0.3,1.2,0.5c0.5,0.1,0.9,0.2,1.2,0.2v1.2H668.1z M657,687.5l-4.2-10.7l-4.1,10.7H657z"/>
	<path class="st1" d="M697.3,672.6c-0.4,0-0.9,0.1-1.7,0.3c-0.7,0.2-1.3,0.4-1.6,0.6c-0.5,0.3-0.8,0.9-0.9,1.9s-0.2,2.1-0.2,3.5V699   h-1.7l-16.7-22.5v14.2c0,1.6,0.1,2.8,0.3,3.7s0.5,1.5,0.9,1.8c0.3,0.3,0.9,0.5,1.8,0.8c0.9,0.2,1.5,0.4,1.8,0.4v1.4H668v-1.4   c0.3,0,0.9-0.2,1.8-0.4c0.8-0.2,1.3-0.4,1.5-0.6c0.5-0.4,0.8-0.9,0.9-1.7c0.2-0.7,0.3-2,0.3-3.8v-13.5c0-0.6-0.1-1.2-0.3-1.8   s-0.5-1.1-0.8-1.4c-0.5-0.4-1.1-0.8-1.9-1.1c-0.8-0.3-1.4-0.5-1.9-0.5v-1.4h7.9l15.4,21v-13.1c0-1.6-0.1-2.8-0.3-3.7   s-0.5-1.4-0.9-1.7c-0.4-0.2-1-0.5-1.8-0.7s-1.4-0.4-1.9-0.4v-1.4h11.2v1.4H697.3z"/>
</g>
</svg>